<svg xmlns="http://www.w3.org/2000/svg" xmlns:xlink="http://www.w3.org/1999/xlink" xmlns:fi="http://pattern.flaticon.com/" x="0" y="0" width="350" height="350" viewBox="0 0 350 350"><rect x="0px" y="0px" width="100%" height="100%" opacity="1" fill="transparent"/><defs><g transform="matrix(0.16979199459436983 0.04549562783283094 -0.04549562783283094 0.16979199459436983 317.93349535953143 -53.06368602287544)" id="L1_1"><path d="M 390.238281 125.332031 L 366.449219 101.542969 L 213.507812 57.6875 L 55.566406 101.542969 L 31.78125 125.332031 C 11.75 145.359375 0.5 172.523438 0.5 200.847656 L 0.5 442.933594 C 0.5 481.078125 31.421875 512 69.566406 512 L 352.453125 512 C 390.597656 512 421.519531 481.078125 421.519531 442.933594 L 421.519531 200.847656 C 421.519531 172.523438 410.265625 145.359375 390.238281 125.332031 Z M 390.238281 125.332031 " fill="#80eaff" fill-opacity="1" stroke="none"/><path d="M 378.613281 202.398438 C 174.183594 210.953125 211.007812 140.875 43.40625 202.398438 L 43.40625 442.933594 C 43.40625 457.359375 55.140625 469.09375 69.566406 469.09375 L 352.453125 469.09375 C 366.875 469.09375 378.613281 457.359375 378.613281 442.933594 L 378.613281 202.398438 " fill="#5aad77" fill-opacity="1" stroke="none"/><path d="M 298.160156 331.558594 C 298.160156 379.691406 259.140625 418.707031 211.007812 418.707031 C 162.875 418.707031 123.859375 379.691406 123.859375 331.558594 C 123.859375 283.425781 162.875 244.40625 211.007812 244.40625 C 259.140625 244.40625 298.160156 283.425781 298.160156 331.558594 Z M 298.160156 331.558594 " fill="#efedee" fill-opacity="1" stroke="none"/><path d="M 231.613281 408.40625 C 183.480469 408.40625 144.460938 369.386719 144.460938 321.253906 C 144.460938 291.269531 159.609375 264.828125 182.664062 249.144531 C 148.453125 260.910156 123.859375 293.351562 123.859375 331.558594 C 123.859375 379.691406 162.875 418.707031 211.007812 418.707031 C 229.15625 418.707031 246.003906 413.15625 259.957031 403.667969 C 251.070312 406.722656 241.539062 408.40625 231.613281 408.40625 Z M 231.613281 408.40625 " fill="#d4d4d4" fill-opacity="1" stroke="none"/><path d="M 257.390625 331.558594 C 257.390625 357.171875 236.625 377.9375 211.007812 377.9375 C 185.394531 377.9375 164.625 357.171875 164.625 331.558594 C 164.625 305.941406 185.394531 285.175781 211.007812 285.175781 C 236.625 285.175781 257.390625 305.941406 257.390625 331.558594 Z M 257.390625 331.558594 " fill="#ff6668" fill-opacity="1" stroke="none"/><path d="M 231.984375 331.558594 C 231.984375 343.140625 222.59375 352.53125 211.007812 352.53125 C 199.425781 352.53125 190.035156 343.140625 190.035156 331.558594 C 190.035156 319.972656 199.425781 310.582031 211.007812 310.582031 C 222.59375 310.582031 231.984375 319.972656 231.984375 331.558594 Z M 231.984375 331.558594 " fill="#3a484a" fill-opacity="1" stroke="none"/><path d="M 55.566406 132.449219 L 366.449219 132.449219 C 375.472656 132.449219 384.03125 130.433594 391.714844 126.847656 C 391.226562 126.339844 390.734375 125.832031 390.238281 125.332031 L 366.449219 101.542969 L 213.507812 57.6875 L 55.566406 101.542969 L 31.78125 125.332031 C 31.28125 125.832031 30.789062 126.339844 30.300781 126.847656 C 37.984375 130.433594 46.542969 132.449219 55.566406 132.449219 Z M 55.566406 132.449219 " fill="#5ccfe6" fill-opacity="1" stroke="none"/><path d="M 343.683594 0 L 78.335938 0 C 49.714844 0 26.515625 23.199219 26.515625 51.820312 L 26.515625 72.492188 C 26.515625 88.535156 39.523438 101.542969 55.566406 101.542969 L 366.449219 101.542969 C 382.496094 101.542969 395.5 88.535156 395.5 72.492188 L 395.5 51.820312 C 395.5 23.199219 372.300781 0 343.683594 0 Z M 343.683594 0 " fill="#c66d5e" fill-opacity="1" stroke="none"/><path d="M 67.722656 72.492188 L 67.722656 51.820312 C 67.722656 23.199219 90.921875 0 119.542969 0 L 78.335938 0 C 49.714844 0 26.515625 23.199219 26.515625 51.820312 L 26.515625 72.492188 C 26.515625 88.535156 39.523438 101.542969 55.566406 101.542969 L 96.773438 101.542969 C 80.730469 101.542969 67.722656 88.539062 67.722656 72.492188 Z M 67.722656 72.492188 " fill="#b85146" fill-opacity="1" stroke="none"/></g><g transform="matrix(0.03906252980232239 0 0 0.03906252980232239 77.5 340)" id="L1_3"><path d="M 144.976562 83.117188 C 202.023438 -60.707031 526.023438 -47.351562 511.527344 372.011719 L 93.203125 372.011719 C 93.203125 310.917969 170.863281 281.925781 113.914062 216.691406 Z M 144.976562 83.117188 " fill="#485877" fill-opacity="1" stroke="none"/><path d="M 259.996094 1.710938 C 364.683594 13.859375 479.0625 119.089844 470.320312 372.011719 L 511.527344 372.011719 C 521.441406 85.226562 373.054688 -11.671875 259.996094 1.710938 Z M 259.996094 1.710938 " fill="#334060" fill-opacity="1" stroke="none"/><path d="M 133.226562 133.652344 L 41.949219 161.8125 C 41.949219 161.8125 59.03125 216.691406 113.914062 216.691406 L 159.992188 216.691406 C 190.300781 216.691406 214.871094 192.121094 214.871094 161.8125 Z M 133.226562 133.652344 " fill="#2b3652" fill-opacity="1" stroke="none"/><path d="M 214.871094 161.8125 L 0.0117188 161.8125 C -1.023438 126.089844 59.550781 54.640625 144.976562 83.117188 C 162.578125 118.839844 214.871094 119.359375 214.871094 161.8125 Z M 214.871094 161.8125 " fill="#334060" fill-opacity="1" stroke="none"/><path d="M 244.378906 143.878906 C 240.113281 143.878906 236.652344 140.421875 236.652344 136.152344 L 236.652344 115.699219 C 236.652344 111.429688 240.113281 107.972656 244.378906 107.972656 C 248.648438 107.972656 252.105469 111.429688 252.105469 115.699219 L 252.105469 136.152344 C 252.105469 140.421875 248.648438 143.878906 244.378906 143.878906 Z M 244.378906 143.878906 " fill="#2b3652" fill-opacity="1" stroke="none"/></g><g transform="matrix(0.078125 0 0 0.078125 155 330)" id="L1_5"><path d="M 385.210938 162.023438 L 442.726562 160.378906 L 492.148438 104.191406 C 495.730469 100.117188 501.777344 99.328125 506.289062 102.347656 C 511.21875 105.652344 512.566406 112.3125 509.3125 117.273438 L 463.519531 187.019531 L 365.589844 221.332031 L 356.035156 193.355469 Z M 385.210938 162.023438 " fill="#b85146" fill-opacity="1" stroke="none"/><path d="M 378.363281 377.6875 L 424.855469 309.054688 L 461.941406 313.175781 L 509.960938 249.609375 C 513.453125 244.984375 513.0625 238.503906 509.039062 234.332031 C 504.824219 229.960938 497.972656 229.511719 493.222656 233.296875 L 445.972656 270.9375 L 415.066406 268.363281 L 370.144531 306.410156 L 348.105469 357.988281 Z M 378.363281 377.6875 " fill="#b85146" fill-opacity="1" stroke="none"/><path d="M 256.417969 53.035156 C 256.417969 53.035156 208.484375 0 160.546875 0 C 160.546875 0 181.964844 35.695312 182.984375 53.035156 C 182.984375 53.035156 138.109375 0 58.554688 0 C 58.554688 0 122.8125 69.355469 122.8125 235.601562 L 122.8125 276.398438 C 122.8125 442.644531 58.554688 512 58.554688 512 C 138.109375 512 182.984375 458.964844 182.984375 458.964844 C 181.964844 476.304688 160.546875 512 160.546875 512 C 208.484375 512 256.417969 458.964844 256.417969 458.964844 C 256.417969 458.964844 304.355469 512 352.292969 512 C 352.292969 512 330.875 476.304688 329.855469 458.964844 C 329.855469 458.964844 374.730469 512 454.285156 512 C 454.285156 512 390.03125 442.644531 390.03125 276.398438 L 390.03125 235.601562 C 390.027344 69.355469 454.285156 0 454.285156 0 C 374.730469 0 329.855469 53.035156 329.855469 53.035156 C 330.875 35.699219 352.292969 0 352.292969 0 C 304.355469 0 256.417969 53.035156 256.417969 53.035156 Z M 256.417969 53.035156 " fill="#c66d5e" fill-opacity="1" stroke="none"/><path d="M 92.195312 3.273438 C 81.796875 1.214844 70.574219 0 58.554688 0 C 58.554688 0 103.515625 48.554688 118.214844 161.753906 L 70.113281 160.378906 L 20.691406 104.191406 C 17.109375 100.117188 11.058594 99.328125 6.550781 102.347656 C 1.621094 105.652344 0.273438 112.3125 3.527344 117.273438 L 49.320312 187.019531 L 122.390625 212.617188 C 122.664062 220.066406 122.8125 227.722656 122.8125 235.601562 L 122.8125 276.398438 C 122.8125 280.824219 122.757812 285.164062 122.667969 289.449219 L 97.773438 268.363281 L 66.867188 270.9375 L 19.617188 233.296875 C 14.863281 229.511719 8.015625 229.960938 3.800781 234.332031 C -0.222656 238.503906 -0.613281 244.984375 2.878906 249.609375 L 50.898438 313.175781 L 87.984375 309.054688 L 117.839844 353.125 C 102.761719 464.277344 58.554688 512 58.554688 512 C 70.574219 512 81.796875 510.785156 92.195312 508.726562 C 104.445312 493.253906 153.714844 421.972656 153.714844 276.398438 L 153.714844 235.601562 C 153.714844 90.027344 104.449219 18.746094 92.195312 3.273438 Z M 92.195312 3.273438 " fill="#b85146" fill-opacity="1" stroke="none"/><path d="M 304.308594 231.203125 C 302.507812 229.300781 299.492188 229.234375 297.570312 231.015625 L 278.570312 248.617188 L 259.691406 231.132812 C 257.84375 229.421875 254.992188 229.421875 253.148438 231.132812 L 234.269531 248.617188 L 215.269531 231.015625 C 213.347656 229.234375 210.335938 229.300781 208.53125 231.203125 C 204.332031 235.636719 197.957031 245.242188 197.957031 262.695312 C 197.957031 280.152344 204.332031 289.757812 208.53125 294.191406 C 210.332031 296.09375 213.347656 296.160156 215.269531 294.378906 L 234.269531 276.777344 L 253.148438 294.261719 C 254.996094 295.96875 257.847656 295.96875 259.691406 294.261719 L 278.570312 276.777344 L 297.570312 294.375 C 299.492188 296.160156 302.503906 296.09375 304.308594 294.1875 C 308.507812 289.757812 314.882812 280.148438 314.882812 262.695312 C 314.882812 245.242188 308.507812 235.636719 304.308594 231.203125 Z M 304.308594 231.203125 " fill="#3a484a" fill-opacity="1" stroke="none"/><path d="M 196.722656 194.964844 L 171.886719 186.558594 C 167.847656 185.191406 163.460938 187.359375 162.09375 191.402344 C 160.722656 195.441406 162.890625 199.828125 166.933594 201.195312 L 173.410156 203.386719 L 173.410156 215.910156 C 173.410156 220.175781 176.867188 223.636719 181.136719 223.636719 C 185.402344 223.636719 188.863281 220.175781 188.863281 215.910156 L 188.863281 208.617188 L 191.765625 209.601562 C 192.585938 209.878906 193.421875 210.011719 194.246094 210.011719 C 197.464844 210.011719 200.472656 207.980469 201.5625 204.761719 C 202.929688 200.71875 200.761719 196.332031 196.722656 194.964844 Z M 196.722656 194.964844 " fill="#3a484a" fill-opacity="1" stroke="none"/><path d="M 350.746094 191.402344 C 349.378906 187.359375 344.992188 185.191406 340.953125 186.558594 L 316.117188 194.964844 C 312.078125 196.332031 309.910156 200.71875 311.277344 204.761719 C 312.367188 207.980469 315.375 210.011719 318.59375 210.011719 C 319.414062 210.011719 320.253906 209.878906 321.074219 209.601562 L 323.976562 208.617188 L 323.976562 215.910156 C 323.976562 220.175781 327.4375 223.636719 331.703125 223.636719 C 335.972656 223.636719 339.429688 220.175781 339.429688 215.910156 L 339.429688 203.386719 L 345.90625 201.195312 C 349.949219 199.828125 352.117188 195.441406 350.746094 191.402344 Z M 350.746094 191.402344 " fill="#3a484a" fill-opacity="1" stroke="none"/></g><g transform="matrix(0.039062485098838806 0 0 0.039062485098838806 252.5 340)" id="L1_7"><path d="M 445.863281 402.925781 C 446.667969 403.734375 447.960938 403.703125 448.765625 402.898438 C 448.773438 402.890625 448.777344 402.886719 448.78125 402.882812 C 463.820312 387.84375 488.574219 388.433594 502.851562 404.652344 C 515.09375 418.554688 515.042969 439.808594 502.738281 453.65625 C 492.816406 464.828125 477.90625 468.503906 464.695312 464.695312 C 468.5 477.90625 464.824219 492.820312 453.65625 502.742188 C 439.808594 515.042969 418.550781 515.09375 404.648438 502.855469 C 388.429688 488.574219 387.839844 463.824219 402.882812 448.78125 C 402.886719 448.777344 402.890625 448.769531 402.898438 448.765625 C 403.703125 447.960938 403.730469 446.667969 402.925781 445.867188 L 66.136719 109.074219 C 65.328125 108.265625 64.035156 108.296875 63.234375 109.101562 C 63.226562 109.105469 63.222656 109.113281 63.21875 109.117188 C 48.179688 124.160156 23.425781 123.570312 9.148438 107.351562 C -3.09375 93.449219 -3.042969 72.191406 9.257812 58.34375 C 19.183594 47.175781 34.09375 43.5 47.304688 47.304688 C 43.5 34.09375 47.175781 19.183594 58.34375 9.261719 C 72.191406 -3.042969 93.449219 -3.09375 107.351562 9.144531 C 123.570312 23.425781 124.160156 48.175781 109.117188 63.21875 C 109.113281 63.222656 109.109375 63.226562 109.101562 63.230469 C 108.296875 64.035156 108.265625 65.328125 109.074219 66.132812 Z M 445.863281 402.925781 " fill="#efedee" fill-opacity="1" stroke="none"/><path d="M 66.136719 402.925781 C 65.328125 403.734375 64.035156 403.703125 63.234375 402.898438 C 63.226562 402.890625 63.222656 402.886719 63.21875 402.882812 C 48.179688 387.84375 23.425781 388.433594 9.148438 404.652344 C -3.09375 418.554688 -3.042969 439.808594 9.261719 453.65625 C 19.183594 464.828125 34.09375 468.503906 47.304688 464.695312 C 43.5 477.90625 47.175781 492.820312 58.34375 502.742188 C 72.191406 515.042969 93.449219 515.09375 107.351562 502.855469 C 123.570312 488.574219 124.160156 463.824219 109.117188 448.78125 C 109.113281 448.777344 109.109375 448.769531 109.101562 448.765625 C 108.296875 447.960938 108.265625 446.667969 109.074219 445.867188 L 445.863281 109.074219 C 446.667969 108.269531 447.960938 108.296875 448.765625 109.101562 C 448.773438 109.109375 448.777344 109.113281 448.78125 109.117188 C 463.820312 124.160156 488.574219 123.570312 502.851562 107.351562 C 515.09375 93.449219 515.042969 72.191406 502.738281 58.34375 C 492.816406 47.175781 477.90625 43.5 464.695312 47.308594 C 468.5 34.09375 464.824219 19.183594 453.65625 9.261719 C 439.808594 -3.039062 418.550781 -3.089844 404.648438 9.148438 C 388.429688 23.425781 387.839844 48.179688 402.882812 63.21875 C 402.886719 63.226562 402.890625 63.230469 402.898438 63.234375 C 403.703125 64.039062 403.730469 65.332031 402.925781 66.136719 Z M 66.136719 402.925781 " fill="#efedee" fill-opacity="1" stroke="none"/><path d="M 382.441406 86.621094 L 89.832031 379.230469 C 105.8125 393.140625 125.125 403.320312 146.398438 408.382812 C 146.398438 408.429688 146.40625 408.480469 146.40625 408.527344 L 425.484375 129.453125 C 413.253906 113.210938 398.746094 98.773438 382.441406 86.621094 Z M 382.441406 86.621094 " fill="#d4d4d4" fill-opacity="1" stroke="none"/><path d="M 129.558594 86.621094 C 113.25 98.773438 98.746094 113.210938 86.515625 129.453125 L 365.59375 408.53125 C 365.59375 408.480469 365.601562 408.429688 365.601562 408.382812 C 386.875 403.320312 406.1875 393.144531 422.167969 379.230469 Z M 129.558594 86.621094 " fill="#d4d4d4" fill-opacity="1" stroke="none"/><path d="M 256 75.601562 C 155.957031 75.601562 74.855469 156.703125 74.855469 256.746094 L 74.855469 278.675781 C 74.855469 335.234375 120.707031 381.082031 177.265625 381.082031 L 177.265625 406.199219 C 177.265625 422.878906 190.785156 436.398438 207.464844 436.398438 L 304.535156 436.398438 C 321.214844 436.398438 334.734375 422.878906 334.734375 406.199219 L 334.734375 381.082031 C 391.292969 381.082031 437.140625 335.234375 437.140625 278.675781 L 437.140625 256.746094 C 437.144531 156.703125 356.042969 75.601562 256 75.601562 Z M 256 75.601562 " fill="#efedee" fill-opacity="1" stroke="none"/><path d="M 166.773438 346.261719 C 162.503906 346.261719 159.046875 342.804688 159.046875 338.535156 L 159.046875 322.386719 C 159.046875 318.121094 162.503906 314.660156 166.773438 314.660156 C 171.042969 314.660156 174.5 318.121094 174.5 322.386719 L 174.5 338.535156 C 174.5 342.804688 171.039062 346.261719 166.773438 346.261719 Z M 166.773438 346.261719 " fill="#3a484a" fill-opacity="1" stroke="none"/><path d="M 345.226562 346.261719 C 340.957031 346.261719 337.5 342.804688 337.5 338.535156 L 337.5 322.386719 C 337.5 318.121094 340.957031 314.660156 345.226562 314.660156 C 349.492188 314.660156 352.953125 318.121094 352.953125 322.386719 L 352.953125 338.535156 C 352.953125 342.804688 349.492188 346.261719 345.226562 346.261719 Z M 345.226562 346.261719 " fill="#3a484a" fill-opacity="1" stroke="none"/><path d="M 270.378906 351.238281 L 262.53125 336.082031 C 259.628906 330.476562 251.570312 330.589844 248.828125 336.277344 L 241.519531 351.433594 C 239.070312 356.519531 242.773438 362.421875 248.421875 362.421875 L 263.578125 362.421875 C 269.320312 362.421875 273.019531 356.335938 270.378906 351.238281 Z M 270.378906 351.238281 " fill="#3a484a" fill-opacity="1" stroke="none"/><path d="M 223.554688 436.398438 L 223.554688 401.1875 C 223.554688 396.921875 227.015625 393.464844 231.28125 393.464844 C 235.550781 393.464844 239.007812 396.921875 239.007812 401.1875 L 239.007812 436.398438 Z M 223.554688 436.398438 " fill="#3a484a" fill-opacity="1" stroke="none"/><path d="M 272.992188 436.398438 L 272.992188 401.1875 C 272.992188 396.921875 276.449219 393.464844 280.71875 393.464844 C 284.984375 393.464844 288.445312 396.921875 288.445312 401.1875 L 288.445312 436.398438 Z M 272.992188 436.398438 " fill="#3a484a" fill-opacity="1" stroke="none"/></g><g transform="matrix(0.078125 0 0 0.078125 67.5 67.5)" id="L1_9"><path d="M 16.75 255.40625 C 7.5 255.40625 0 262.90625 0 272.15625 C 0 281.410156 7.5 288.910156 16.75 288.910156 L 80.113281 288.910156 L 80.113281 255.40625 Z M 16.75 255.40625 " fill="#334060" fill-opacity="1" stroke="none"/><path d="M 107.0625 418.546875 L 88.066406 483.828125 C 84.636719 495.617188 93.480469 507.402344 105.757812 507.402344 C 112.796875 507.402344 119.21875 503.390625 122.308594 497.070312 L 149.304688 441.851562 Z M 107.0625 418.546875 " fill="#334060" fill-opacity="1" stroke="none"/><path d="M 495.25 255.40625 C 504.5 255.40625 512 262.90625 512 272.15625 C 512 281.410156 504.5 288.910156 495.25 288.910156 L 431.886719 288.910156 L 431.886719 255.40625 Z M 495.25 255.40625 " fill="#334060" fill-opacity="1" stroke="none"/><path d="M 404.9375 418.546875 L 423.933594 483.828125 C 427.363281 495.617188 418.519531 507.402344 406.242188 507.402344 C 399.203125 507.402344 392.78125 503.390625 389.691406 497.070312 L 362.695312 441.851562 Z M 404.9375 418.546875 " fill="#334060" fill-opacity="1" stroke="none"/><path d="M 450.457031 211.707031 C 484.125 323.265625 452.375 392.542969 421.972656 429.90625 C 403.773438 452.273438 376.40625 465.160156 347.574219 465.160156 L 164.425781 465.160156 C 135.59375 465.160156 108.226562 452.273438 90.027344 429.90625 C 59.625 392.542969 27.875 323.265625 61.542969 211.707031 L 256 189.859375 Z M 450.457031 211.707031 " fill="#485877" fill-opacity="1" stroke="none"/><path d="M 172.011719 318.078125 C 167.742188 318.078125 164.285156 314.621094 164.285156 310.351562 L 164.285156 295.152344 C 164.285156 290.886719 167.742188 287.425781 172.011719 287.425781 C 176.277344 287.425781 179.738281 290.886719 179.738281 295.152344 L 179.738281 310.351562 C 179.738281 314.621094 176.277344 318.078125 172.011719 318.078125 Z M 172.011719 318.078125 " fill="#ffffff" fill-opacity="1" stroke="none"/><path d="M 339.988281 318.078125 C 335.722656 318.078125 332.261719 314.621094 332.261719 310.351562 L 332.261719 295.152344 C 332.261719 290.886719 335.722656 287.425781 339.988281 287.425781 C 344.257812 287.425781 347.714844 290.886719 347.714844 295.152344 L 347.714844 310.351562 C 347.714844 314.621094 344.257812 318.078125 339.988281 318.078125 Z M 339.988281 318.078125 " fill="#ffffff" fill-opacity="1" stroke="none"/><path d="M 256 326.191406 C 245.691406 326.191406 236.015625 321.886719 229.453125 314.378906 C 226.644531 311.167969 226.972656 306.285156 230.183594 303.476562 C 233.398438 300.667969 238.277344 300.996094 241.085938 304.210938 C 244.714844 308.359375 250.148438 310.738281 256 310.738281 C 261.851562 310.738281 267.285156 308.359375 270.910156 304.210938 C 273.722656 300.996094 278.601562 300.671875 281.8125 303.476562 C 285.027344 306.285156 285.355469 311.167969 282.546875 314.378906 C 275.984375 321.886719 266.308594 326.191406 256 326.191406 Z M 256 326.191406 " fill="#ffffff" fill-opacity="1" stroke="none"/><path d="M 418.960938 136.511719 C 418.472656 136.511719 417.984375 136.523438 417.5 136.542969 C 407.351562 137.007812 397.945312 131.507812 393.71875 122.269531 C 385.375 104.027344 366.96875 91.355469 345.597656 91.355469 C 338.566406 91.355469 331.855469 92.730469 325.71875 95.222656 C 315.632812 99.320312 304.175781 95.769531 297.671875 87.042969 C 282.40625 66.566406 258.011719 53.300781 230.511719 53.300781 C 195.113281 53.300781 164.863281 75.261719 152.609375 106.300781 C 148.054688 117.824219 135.570312 124.113281 123.628906 120.804688 C 119.457031 119.648438 115.0625 119.03125 110.519531 119.03125 C 83.46875 119.03125 61.542969 140.960938 61.542969 168.007812 L 256 189.859375 L 450.457031 168.011719 C 450.457031 150.613281 436.355469 136.511719 418.960938 136.511719 Z M 418.960938 136.511719 " fill="#67c789" fill-opacity="1" stroke="none"/><path d="M 152.582031 31.492188 C 152.582031 48.605469 138.703125 62.480469 121.589844 62.480469 C 104.472656 62.480469 90.597656 48.605469 90.597656 31.492188 C 90.597656 14.375 104.472656 0.5 121.589844 0.5 C 138.703125 0.5 152.582031 14.375 152.582031 31.492188 Z M 152.582031 31.492188 " fill="#5aad77" fill-opacity="1" stroke="none"/><path d="M 445.761719 63.535156 C 445.761719 74.417969 436.941406 83.238281 426.058594 83.238281 C 415.179688 83.238281 406.359375 74.417969 406.359375 63.535156 C 406.359375 52.65625 415.179688 43.835938 426.058594 43.835938 C 436.941406 43.835938 445.761719 52.65625 445.761719 63.535156 Z M 445.761719 63.535156 " fill="#67c789" fill-opacity="1" stroke="none"/><path d="M 61.542969 211.707031 C 58.378906 222.1875 55.796875 232.289062 53.730469 242.03125 C 56.28125 242.414062 58.886719 242.613281 61.542969 242.613281 L 450.457031 242.613281 C 453.109375 242.613281 455.71875 242.410156 458.265625 242.03125 C 456.203125 232.289062 453.617188 222.1875 450.457031 211.707031 L 256 189.859375 Z M 61.542969 211.707031 " fill="#334060" fill-opacity="1" stroke="none"/><path d="M 92.449219 168.011719 C 92.449219 146.199219 106.710938 127.722656 126.414062 121.382812 C 125.484375 121.242188 124.554688 121.0625 123.628906 120.804688 C 119.457031 119.648438 115.0625 119.03125 110.519531 119.03125 C 83.46875 119.03125 61.542969 140.960938 61.542969 168.007812 L 256 189.859375 L 271.453125 188.121094 Z M 92.449219 168.011719 " fill="#5aad77" fill-opacity="1" stroke="none"/><path d="M 141.425781 119.03125 C 145.964844 119.03125 150.363281 119.648438 154.535156 120.804688 C 166.476562 124.113281 178.960938 117.828125 183.511719 106.300781 C 193.941406 79.890625 217.40625 60.0625 245.976562 54.734375 C 240.964844 53.796875 235.796875 53.304688 230.511719 53.304688 C 195.113281 53.304688 164.863281 75.261719 152.609375 106.300781 C 150.351562 112.011719 146.144531 116.433594 141.023438 119.042969 C 141.15625 119.039062 141.289062 119.03125 141.425781 119.03125 Z M 141.425781 119.03125 " fill="#5aad77" fill-opacity="1" stroke="none"/><path d="M 450.457031 168.011719 L 61.542969 168.011719 C 49.476562 168.011719 39.691406 177.792969 39.691406 189.859375 C 39.691406 201.925781 49.476562 211.707031 61.542969 211.707031 L 450.457031 211.707031 C 462.523438 211.707031 472.308594 201.925781 472.308594 189.859375 C 472.308594 177.792969 462.527344 168.011719 450.457031 168.011719 Z M 450.457031 168.011719 " fill="#485877" fill-opacity="1" stroke="none"/></g><g transform="matrix(0.078125 0 0 0.078125 242.5 67.5)" id="L1_11"><path d="M 418.6875 240.519531 C 399.882812 286.050781 418.6875 328.613281 418.6875 372.660156 C 414.730469 395.917969 383.550781 377.609375 383.550781 377.609375 C 383.550781 440.460938 355.335938 423.136719 346.429688 414.230469 C 356.828125 450.359375 333.714844 454.011719 333.714844 454.011719 L 108.734375 454.011719 C 108.734375 454.011719 85.621094 450.359375 96.019531 414.230469 C 87.113281 423.136719 58.898438 440.460938 58.898438 377.609375 C 58.898438 377.609375 27.71875 395.917969 23.761719 372.660156 C 23.761719 328.613281 42.566406 286.050781 23.761719 240.519531 L 64.835938 220.722656 L 221.222656 143.023438 L 377.613281 220.722656 Z M 418.6875 240.519531 " fill="#a66dc2" fill-opacity="1" stroke="none"/><path d="M 285.40625 404.347656 L 157.042969 404.347656 C 157.042969 404.347656 96.019531 431.101562 96.019531 512 L 346.429688 512 C 346.429688 431.097656 285.40625 404.347656 285.40625 404.347656 Z M 285.40625 404.347656 " fill="#3a484a" fill-opacity="1" stroke="none"/><path d="M 274.839844 418.160156 C 274.839844 418.160156 265.765625 450.082031 221.222656 476.09375 C 176.683594 450.082031 167.609375 418.160156 167.609375 418.160156 Z M 274.839844 418.160156 " fill="#5aad77" fill-opacity="1" stroke="none"/><path d="M 377.613281 271.203125 C 377.613281 357.574219 307.59375 427.59375 221.222656 427.59375 C 134.855469 427.59375 64.835938 357.574219 64.835938 271.203125 L 64.835938 220.722656 L 377.613281 220.722656 Z M 377.613281 271.203125 " fill="#67c789" fill-opacity="1" stroke="none"/><path d="M 95.742188 271.203125 L 95.742188 220.722656 L 64.835938 220.722656 L 64.835938 271.203125 C 64.835938 357.574219 134.855469 427.59375 221.222656 427.59375 C 226.4375 427.59375 231.59375 427.332031 236.675781 426.832031 C 157.5625 419.070312 95.742188 352.359375 95.742188 271.203125 Z M 95.742188 271.203125 " fill="#5aad77" fill-opacity="1" stroke="none"/><path d="M 301.546875 292.925781 C 297.28125 292.925781 293.820312 289.46875 293.820312 285.199219 L 293.820312 269.582031 C 293.820312 265.316406 297.28125 261.855469 301.546875 261.855469 C 305.816406 261.855469 309.273438 265.316406 309.273438 269.582031 L 309.273438 285.199219 C 309.273438 289.46875 305.816406 292.925781 301.546875 292.925781 Z M 301.546875 292.925781 " fill="#3a484a" fill-opacity="1" stroke="none"/><path d="M 312.183594 315.882812 L 290.914062 315.882812 C 286.644531 315.882812 283.1875 312.425781 283.1875 308.15625 C 283.1875 303.890625 286.644531 300.429688 290.914062 300.429688 L 312.183594 300.429688 C 316.449219 300.429688 319.910156 303.890625 319.910156 308.15625 C 319.910156 312.425781 316.449219 315.882812 312.183594 315.882812 Z M 312.183594 315.882812 " fill="#f98084" fill-opacity="1" stroke="none"/><path d="M 140.902344 292.925781 C 136.632812 292.925781 133.175781 289.46875 133.175781 285.199219 L 133.175781 269.582031 C 133.175781 265.316406 136.632812 261.855469 140.902344 261.855469 C 145.167969 261.855469 148.628906 265.316406 148.628906 269.582031 L 148.628906 285.199219 C 148.628906 289.46875 145.167969 292.925781 140.902344 292.925781 Z M 140.902344 292.925781 " fill="#3a484a" fill-opacity="1" stroke="none"/><path d="M 151.539062 315.882812 L 130.265625 315.882812 C 126 315.882812 122.539062 312.425781 122.539062 308.15625 C 122.539062 303.890625 126 300.429688 130.265625 300.429688 L 151.539062 300.429688 C 155.804688 300.429688 159.265625 303.890625 159.265625 308.15625 C 159.265625 312.425781 155.804688 315.882812 151.539062 315.882812 Z M 151.539062 315.882812 " fill="#f98084" fill-opacity="1" stroke="none"/><path d="M 221.222656 315 C 213.394531 315 206.039062 311.722656 201.042969 306.003906 C 198.234375 302.789062 198.558594 297.910156 201.773438 295.101562 C 204.984375 292.292969 209.867188 292.621094 212.675781 295.832031 C 214.738281 298.191406 217.855469 299.546875 221.222656 299.546875 C 224.59375 299.546875 227.710938 298.191406 229.773438 295.832031 C 232.582031 292.617188 237.464844 292.292969 240.675781 295.101562 C 243.890625 297.910156 244.21875 302.789062 241.40625 306.003906 C 236.410156 311.722656 229.054688 315 221.222656 315 Z M 221.222656 315 " fill="#3a484a" fill-opacity="1" stroke="none"/><path d="M 136.144531 512 L 136.144531 477.082031 C 136.144531 472.8125 139.605469 469.355469 143.871094 469.355469 C 148.136719 469.355469 151.597656 472.8125 151.597656 477.082031 L 151.597656 512 Z M 136.144531 512 " fill="#323e40" fill-opacity="1" stroke="none"/><path d="M 290.851562 512 L 290.851562 477.082031 C 290.851562 472.8125 294.3125 469.355469 298.578125 469.355469 C 302.84375 469.355469 306.304688 472.8125 306.304688 477.082031 L 306.304688 512 Z M 290.851562 512 " fill="#323e40" fill-opacity="1" stroke="none"/><path d="M 255.726562 17.667969 C 247.730469 6.574219 234.894531 0 221.222656 0 C 207.554688 0 194.71875 6.574219 186.71875 17.667969 L 113.1875 119.765625 L 221.222656 143.023438 L 329.261719 119.765625 Z M 255.726562 17.667969 " fill="#3a484a" fill-opacity="1" stroke="none"/><path d="M 144.09375 119.765625 L 217.625 17.667969 C 222.488281 10.925781 229.140625 5.863281 236.675781 2.921875 C 231.8125 1.023438 226.585938 0 221.222656 0 C 207.554688 0 194.71875 6.574219 186.71875 17.667969 L 113.1875 119.765625 L 221.222656 143.023438 L 236.675781 139.699219 Z M 144.09375 119.765625 " fill="#323e40" fill-opacity="1" stroke="none"/><path d="M 362.765625 166.285156 L 221.222656 143.023438 L 79.683594 166.285156 C 79.683594 166.285156 25.246094 185.089844 0.5 240.519531 L 441.949219 240.519531 C 417.203125 185.089844 362.765625 166.285156 362.765625 166.285156 Z M 362.765625 166.285156 " fill="#3a484a" fill-opacity="1" stroke="none"/><path d="M 110.589844 166.285156 L 236.675781 145.566406 L 221.222656 143.023438 L 79.683594 166.285156 C 79.683594 166.285156 25.246094 185.089844 0.5 240.519531 L 31.40625 240.519531 C 56.148438 185.089844 110.589844 166.285156 110.589844 166.285156 Z M 110.589844 166.285156 " fill="#323e40" fill-opacity="1" stroke="none"/><path d="M 362.765625 166.285156 L 79.683594 166.285156 L 113.1875 119.765625 L 329.261719 119.765625 Z M 362.765625 166.285156 " fill="#a66dc2" fill-opacity="1" stroke="none"/><path d="M 113.1875 119.765625 L 79.683594 166.285156 L 110.589844 166.285156 L 144.09375 119.765625 Z M 113.1875 119.765625 " fill="#905fa8" fill-opacity="1" stroke="none"/><path d="M 241.6875 106.265625 L 200.761719 106.265625 C 190.144531 106.265625 181.535156 114.875 181.535156 125.492188 L 181.535156 166.285156 L 260.910156 166.285156 L 260.910156 125.492188 C 260.910156 114.875 252.304688 106.265625 241.6875 106.265625 Z M 241.6875 106.265625 " fill="#fecd38" fill-opacity="1" stroke="none"/><path d="M 206.28125 131.011719 L 236.167969 131.011719 L 236.167969 166.285156 L 206.28125 166.285156 Z M 206.28125 131.011719 " fill="#a66dc2" fill-opacity="1" stroke="none"/></g><g transform="matrix(0.13671879470348358 0 0 0.13671879470348358 315 140)" id="L1_13"><path d="M 318.984375 98.875 C 320.988281 47.527344 340.269531 20.765625 359.023438 6.839844 C 374.84375 -4.910156 397.246094 -1.070312 408.808594 14.882812 C 427.578125 40.773438 437.734375 18.089844 465.824219 46.175781 C 493.910156 74.265625 471.230469 84.421875 497.117188 103.191406 C 513.070312 114.753906 516.910156 137.15625 505.160156 152.976562 C 491.234375 171.730469 464.472656 191.011719 413.125 193.015625 Z M 318.984375 98.875 " fill="#fecd38" fill-opacity="1" stroke="none"/><path d="M 381.726562 138 C 379.75 138 377.773438 137.246094 376.265625 135.738281 C 373.246094 132.71875 373.246094 127.828125 376.265625 124.808594 L 421.257812 79.816406 C 424.273438 76.800781 429.167969 76.800781 432.183594 79.816406 C 435.203125 82.835938 435.203125 87.726562 432.183594 90.742188 L 387.191406 135.738281 C 385.683594 137.246094 383.703125 138 381.726562 138 Z M 381.726562 138 " fill="#f8a33e" fill-opacity="1" stroke="none"/><path d="M 342.710938 130.320312 C 342.128906 130.320312 341.542969 130.253906 340.953125 130.117188 C 336.796875 129.152344 334.210938 125 335.179688 120.84375 C 346.167969 73.574219 369.851562 51.421875 370.851562 50.503906 C 373.996094 47.621094 378.882812 47.828125 381.769531 50.972656 C 384.648438 54.113281 384.445312 58.988281 381.316406 61.875 C 380.9375 62.230469 360.019531 82.234375 350.230469 124.339844 C 349.398438 127.910156 346.222656 130.320312 342.710938 130.320312 Z M 342.710938 130.320312 " fill="#f8a33e" fill-opacity="1" stroke="none"/><path d="M 389.402344 177.027344 C 385.890625 177.027344 382.710938 174.613281 381.882812 171.046875 C 380.917969 166.890625 383.503906 162.738281 387.660156 161.773438 C 429.9375 151.945312 449.933594 130.894531 450.128906 130.683594 C 453.03125 127.570312 457.914062 127.375 461.039062 130.265625 C 464.164062 133.152344 464.375 138.011719 461.496094 141.148438 C 460.578125 142.152344 438.425781 165.835938 391.15625 176.824219 C 390.570312 176.960938 389.980469 177.027344 389.402344 177.027344 Z M 389.402344 177.027344 " fill="#f8a33e" fill-opacity="1" stroke="none"/><path d="M 98.875 318.984375 C 47.527344 320.988281 20.765625 340.269531 6.839844 359.023438 C -4.910156 374.84375 -1.070312 397.246094 14.882812 408.808594 C 40.773438 427.578125 18.089844 437.734375 46.175781 465.824219 C 74.265625 493.910156 84.421875 471.230469 103.191406 497.117188 C 114.753906 513.070312 137.15625 516.910156 152.976562 505.160156 C 171.730469 491.234375 191.011719 464.472656 193.015625 413.125 Z M 98.875 318.984375 " fill="#fecd38" fill-opacity="1" stroke="none"/><path d="M 85.28125 434.445312 C 83.304688 434.445312 81.324219 433.691406 79.816406 432.183594 C 76.800781 429.164062 76.800781 424.273438 79.816406 421.257812 L 124.808594 376.265625 C 127.828125 373.246094 132.71875 373.246094 135.738281 376.265625 C 138.753906 379.28125 138.753906 384.171875 135.738281 387.191406 L 90.742188 432.183594 C 89.234375 433.691406 87.257812 434.445312 85.28125 434.445312 Z M 85.28125 434.445312 " fill="#f8a33e" fill-opacity="1" stroke="none"/><path d="M 56.195312 383.800781 C 54.328125 383.800781 52.457031 383.128906 50.976562 381.769531 C 47.828125 378.882812 47.617188 373.996094 50.503906 370.851562 C 51.421875 369.851562 73.574219 346.164062 120.839844 335.179688 C 124.996094 334.210938 129.148438 336.796875 130.117188 340.953125 C 131.082031 345.109375 128.496094 349.261719 124.339844 350.230469 C 81.679688 360.148438 62.085938 381.085938 61.890625 381.296875 C 60.367188 382.957031 58.285156 383.800781 56.195312 383.800781 Z M 56.195312 383.800781 " fill="#f8a33e" fill-opacity="1" stroke="none"/><path d="M 135.925781 463.53125 C 133.839844 463.53125 131.753906 462.6875 130.230469 461.027344 C 127.351562 457.890625 127.558594 453.011719 130.683594 450.128906 C 131.066406 449.769531 151.984375 429.765625 161.769531 387.660156 C 162.738281 383.503906 166.890625 380.917969 171.046875 381.882812 C 175.203125 382.851562 177.789062 387.003906 176.824219 391.160156 C 165.832031 438.429688 142.152344 460.578125 141.148438 461.5 C 139.664062 462.859375 137.792969 463.53125 135.925781 463.53125 Z M 135.925781 463.53125 " fill="#f8a33e" fill-opacity="1" stroke="none"/><path d="M 153.863281 153.863281 C 151.027344 156.703125 148.289062 159.597656 145.648438 162.53125 L 122.609375 281.828125 L 146.371094 395.210938 C 166.914062 409.523438 191.457031 417 217.390625 417.898438 L 256.953125 334.792969 L 255.648438 172.851562 L 213.066406 111.871094 C 192.050781 121.824219 171.867188 135.863281 153.863281 153.863281 Z M 153.863281 153.863281 " fill="#a66dc2" fill-opacity="1" stroke="none"/><path d="M 296.570312 94.179688 L 255.644531 172.851562 L 256.953125 334.792969 L 304.167969 397.550781 C 323.296875 387.808594 341.640625 374.632812 358.136719 358.136719 C 366.289062 349.984375 373.625 341.386719 380.144531 332.460938 L 398.59375 214.601562 L 372.183594 121.699219 C 350.902344 104.570312 324.59375 95.511719 296.570312 94.179688 Z M 296.570312 94.179688 " fill="#a66dc2" fill-opacity="1" stroke="none"/><path d="M 145.648438 162.53125 C 146.527344 173.839844 147.269531 185.253906 147.890625 196.761719 C 151.308594 260.289062 150.785156 326.878906 146.371094 395.210938 C 140.679688 391.246094 135.296875 386.753906 130.273438 381.730469 C 76.171875 327.628906 83.679688 231.566406 145.648438 162.53125 Z M 145.648438 162.53125 " fill="#fecd38" fill-opacity="1" stroke="none"/><path d="M 379.785156 332.953125 C 379.90625 332.789062 380.023438 332.625 380.144531 332.460938 L 398.59375 214.601562 L 396.050781 205.667969 C 394.980469 240.828125 382.183594 277.886719 358.289062 310.609375 C 351.773438 319.53125 344.433594 328.128906 336.28125 336.285156 C 320.90625 351.660156 303.921875 364.148438 286.199219 373.667969 L 304.171875 397.554688 C 323.296875 387.808594 341.640625 374.632812 358.136719 358.136719 C 365.84375 350.429688 373.246094 341.867188 379.785156 332.953125 Z M 379.785156 332.953125 " fill="#905fa8" fill-opacity="1" stroke="none"/><path d="M 296.570312 94.179688 C 300.867188 127.40625 303.957031 161.648438 305.847656 196.753906 C 309.292969 261.015625 308.726562 328.398438 304.171875 397.550781 C 275.84375 411.980469 245.773438 418.878906 217.390625 417.898438 C 223.457031 342.652344 224.601562 269.507812 220.851562 200.355469 C 219.203125 170.074219 216.605469 140.558594 213.066406 111.871094 C 240.507812 98.894531 269.347656 92.886719 296.570312 94.179688 Z M 296.570312 94.179688 " fill="#fecd38" fill-opacity="1" stroke="none"/><path d="M 381.730469 130.269531 C 431.511719 180.054688 429.128906 265.375 380.144531 332.460938 C 381.558594 287.199219 381.113281 243.023438 378.800781 200.355469 C 377.34375 173.523438 375.132812 147.285156 372.183594 121.703125 C 375.496094 124.363281 378.679688 127.222656 381.730469 130.269531 Z M 381.730469 130.269531 " fill="#fecd38" fill-opacity="1" stroke="none"/><path d="M 381.730469 130.273438 C 378.707031 127.246094 375.519531 124.382812 372.183594 121.703125 C 372.238281 122.167969 372.285156 122.636719 372.339844 123.105469 C 401.269531 163.347656 403.4375 219.425781 380.898438 271.289062 C 381.027344 291.429688 380.789062 311.828125 380.144531 332.460938 C 429.128906 265.378906 431.511719 180.054688 381.730469 130.273438 Z M 381.730469 130.273438 " fill="#f8a33e" fill-opacity="1" stroke="none"/><path d="M 217.390625 417.898438 L 228.921875 393.675781 C 217.675781 395.617188 206.480469 396.421875 195.535156 396.042969 C 177.417969 395.417969 159.980469 391.566406 144.109375 384.429688 L 146.371094 395.210938 C 148.9375 397 151.566406 398.683594 154.253906 400.257812 C 169.039062 408.925781 185.558594 414.378906 202.964844 416.699219 C 207.714844 417.328125 212.527344 417.730469 217.390625 417.898438 Z M 217.390625 417.898438 " fill="#905fa8" fill-opacity="1" stroke="none"/><path d="M 146.953125 385.65625 C 139.078125 382.347656 131.558594 378.261719 124.515625 373.355469 C 123.019531 372.3125 121.542969 371.230469 120.085938 370.113281 C 120.859375 371.117188 121.652344 372.117188 122.460938 373.101562 C 122.46875 373.109375 122.472656 373.117188 122.480469 373.125 C 128.820312 380.871094 136.167969 387.800781 144.25 393.699219 C 144.953125 394.210938 145.660156 394.714844 146.371094 395.210938 C 146.578125 392.019531 146.765625 388.839844 146.953125 385.65625 Z M 146.953125 385.65625 " fill="#f8a33e" fill-opacity="1" stroke="none"/><path d="M 306.1875 361.421875 C 298.425781 366.792969 290.445312 371.558594 282.316406 375.699219 C 261.714844 386.191406 240.195312 392.683594 219.070312 395.074219 C 218.554688 402.664062 218.007812 410.265625 217.390625 417.898438 C 235.128906 418.511719 253.527344 416.046875 271.746094 410.589844 C 282.679688 407.316406 293.546875 402.964844 304.171875 397.554688 C 304.96875 385.453125 305.636719 373.40625 306.1875 361.421875 Z M 306.1875 361.421875 " fill="#f8a33e" fill-opacity="1" stroke="none"/></g><g transform="matrix(0.13205984051438047 -0.0353853276184111 0.0353853276184111 0.13205984051438047 132.53576620194764 150.19833671716452)" id="L1_15"><path d="M 243.328125 0 L 274.195312 0 L 274.195312 210.988281 L 243.328125 210.988281 Z M 243.328125 0 " fill="#efedee" fill-opacity="1" stroke="none"/><path d="M 155.625 210.988281 C 153.105469 210.988281 150.558594 210.339844 148.230469 208.976562 L 88.734375 174.121094 C 85.914062 172.46875 82.5625 172.121094 79.476562 173.136719 L 36.347656 192.703125 C 28.972656 196.046875 20.289062 192.785156 16.945312 185.414062 C 13.601562 178.039062 16.863281 169.355469 24.234375 166.011719 L 67.933594 146.183594 C 68.25 146.042969 68.570312 145.910156 68.894531 145.789062 C 80.363281 141.539062 92.996094 142.644531 103.550781 148.828125 L 163.046875 183.683594 C 170.03125 187.777344 172.375 196.757812 168.285156 203.738281 C 165.554688 208.394531 160.65625 210.988281 155.625 210.988281 Z M 155.625 210.988281 " fill="#905fa8" fill-opacity="1" stroke="none"/><path d="M 14.65625 291.574219 C 10.992188 291.574219 7.328125 290.210938 4.484375 287.46875 C -1.34375 281.851562 -1.511719 272.570312 4.105469 266.746094 L 34.09375 235.636719 C 42.667969 226.820312 54.554688 222.398438 66.738281 223.441406 L 135.441406 229.347656 C 143.503906 230.042969 149.480469 237.140625 148.785156 245.207031 C 148.09375 253.269531 140.992188 259.242188 132.929688 258.550781 L 64.230469 252.644531 C 60.839844 252.359375 57.527344 253.589844 55.152344 256.03125 L 25.210938 287.089844 C 22.332031 290.074219 18.496094 291.574219 14.65625 291.574219 Z M 14.65625 291.574219 " fill="#905fa8" fill-opacity="1" stroke="none"/><path d="M 41 419.449219 C 39.429688 419.449219 37.832031 419.195312 36.265625 418.660156 C 28.605469 416.042969 24.515625 407.714844 27.128906 400.054688 L 42.421875 355.261719 C 45.808594 343.683594 54.066406 334.289062 65.136719 329.449219 L 128.316406 301.828125 C 135.730469 298.585938 144.371094 301.96875 147.617188 309.382812 C 150.859375 316.800781 147.472656 325.441406 140.058594 328.683594 L 76.878906 356.308594 C 73.757812 357.671875 71.441406 360.335938 70.523438 363.617188 C 70.449219 363.875 70.367188 364.132812 70.28125 364.390625 L 54.867188 409.527344 C 52.789062 415.617188 47.097656 419.449219 41 419.449219 Z M 41 419.449219 " fill="#905fa8" fill-opacity="1" stroke="none"/><path d="M 117.972656 489.289062 C 117.785156 489.289062 117.601562 489.285156 117.417969 489.277344 C 109.328125 488.976562 103.011719 482.179688 103.3125 474.089844 L 105.070312 426.863281 C 105.441406 414.726562 111.222656 403.441406 120.921875 395.988281 L 175.605469 353.984375 C 182.027344 349.050781 191.226562 350.257812 196.15625 356.679688 C 201.085938 363.097656 199.882812 372.296875 193.460938 377.230469 L 138.78125 419.234375 C 136.078125 421.308594 134.46875 424.453125 134.363281 427.855469 L 132.605469 475.175781 C 132.3125 483.082031 125.816406 489.289062 117.972656 489.289062 Z M 117.972656 489.289062 " fill="#905fa8" fill-opacity="1" stroke="none"/><path d="M 356.378906 210.988281 C 358.894531 210.988281 361.445312 210.339844 363.773438 208.976562 L 423.269531 174.121094 C 426.085938 172.46875 429.4375 172.121094 432.527344 173.136719 L 475.65625 192.703125 C 483.027344 196.046875 491.710938 192.785156 495.058594 185.414062 C 498.402344 178.039062 495.136719 169.355469 487.765625 166.011719 L 444.066406 146.183594 C 443.753906 146.042969 443.433594 145.910156 443.105469 145.789062 C 431.636719 141.539062 419.003906 142.644531 408.449219 148.828125 L 348.953125 183.683594 C 341.96875 187.777344 339.625 196.757812 343.71875 203.738281 C 346.445312 208.394531 351.34375 210.988281 356.378906 210.988281 Z M 356.378906 210.988281 " fill="#905fa8" fill-opacity="1" stroke="none"/><path d="M 497.347656 291.574219 C 501.007812 291.574219 504.671875 290.210938 507.515625 287.46875 C 513.34375 281.851562 513.515625 272.570312 507.894531 266.746094 L 477.90625 235.636719 C 469.332031 226.820312 457.445312 222.398438 445.261719 223.441406 L 376.5625 229.347656 C 368.496094 230.042969 362.519531 237.140625 363.214844 245.207031 C 363.90625 253.269531 371.007812 259.242188 379.074219 258.550781 L 447.773438 252.644531 C 451.160156 252.359375 454.472656 253.589844 456.847656 256.03125 L 486.792969 287.089844 C 489.667969 290.074219 493.503906 291.574219 497.347656 291.574219 Z M 497.347656 291.574219 " fill="#905fa8" fill-opacity="1" stroke="none"/><path d="M 471 419.449219 C 472.570312 419.449219 474.167969 419.195312 475.738281 418.660156 C 483.398438 416.042969 487.488281 407.714844 484.871094 400.054688 L 469.578125 355.261719 C 466.195312 343.683594 457.9375 334.289062 446.863281 329.449219 L 383.6875 301.828125 C 376.269531 298.585938 367.628906 301.96875 364.386719 309.382812 C 361.144531 316.800781 364.527344 325.441406 371.945312 328.683594 L 435.121094 356.308594 C 438.242188 357.671875 440.5625 360.335938 441.480469 363.617188 C 441.554688 363.875 441.632812 364.132812 441.722656 364.390625 L 457.132812 409.523438 C 459.210938 415.617188 464.90625 419.449219 471 419.449219 Z M 471 419.449219 " fill="#905fa8" fill-opacity="1" stroke="none"/><path d="M 394.03125 489.289062 C 394.214844 489.289062 394.398438 489.285156 394.585938 489.277344 C 402.671875 488.976562 408.988281 482.179688 408.6875 474.089844 L 406.933594 426.863281 C 406.558594 414.726562 400.777344 403.441406 391.078125 395.988281 L 336.394531 353.984375 C 329.976562 349.050781 320.773438 350.257812 315.84375 356.679688 C 310.914062 363.097656 312.117188 372.296875 318.539062 377.230469 L 373.222656 419.234375 C 375.921875 421.308594 377.53125 424.453125 377.636719 427.855469 L 379.394531 475.175781 C 379.6875 483.082031 386.1875 489.289062 394.03125 489.289062 Z M 394.03125 489.289062 " fill="#905fa8" fill-opacity="1" stroke="none"/><path d="M 243.328125 115.554688 L 274.195312 115.554688 L 274.195312 210.988281 L 243.328125 210.988281 Z M 243.328125 115.554688 " fill="#d4d4d4" fill-opacity="1" stroke="none"/><path d="M 276.03125 146.460938 L 241.492188 146.460938 C 166.214844 146.460938 105.1875 207.488281 105.1875 282.765625 C 105.1875 358.046875 166.214844 419.070312 241.492188 419.070312 L 276.03125 419.070312 C 351.3125 419.070312 412.335938 358.046875 412.335938 282.765625 C 412.335938 207.488281 351.3125 146.460938 276.03125 146.460938 Z M 276.03125 146.460938 " fill="#a66dc2" fill-opacity="1" stroke="none"/><path d="M 136.09375 282.765625 C 136.09375 207.488281 197.117188 146.460938 272.398438 146.460938 L 241.492188 146.460938 C 166.214844 146.460938 105.1875 207.488281 105.1875 282.765625 C 105.1875 358.046875 166.214844 419.070312 241.492188 419.070312 L 272.398438 419.070312 C 197.117188 419.070312 136.09375 358.046875 136.09375 282.765625 Z M 136.09375 282.765625 " fill="#905fa8" fill-opacity="1" stroke="none"/><path d="M 185.234375 321.242188 C 180.964844 321.242188 177.507812 317.78125 177.507812 313.515625 L 177.507812 296.535156 C 177.507812 292.269531 180.964844 288.808594 185.234375 288.808594 C 189.503906 288.808594 192.960938 292.269531 192.960938 296.535156 L 192.960938 313.515625 C 192.960938 317.78125 189.503906 321.242188 185.234375 321.242188 Z M 185.234375 321.242188 " fill="#3a484a" fill-opacity="1" stroke="none"/><path d="M 197.558594 308.4375 C 196.734375 308.4375 195.902344 308.304688 195.078125 308.027344 L 171.738281 300.125 C 167.695312 298.757812 165.527344 294.371094 166.894531 290.328125 C 168.261719 286.285156 172.652344 284.121094 176.691406 285.488281 L 200.035156 293.390625 C 204.078125 294.757812 206.242188 299.140625 204.875 303.183594 C 203.785156 306.40625 200.777344 308.4375 197.558594 308.4375 Z M 197.558594 308.4375 " fill="#3a484a" fill-opacity="1" stroke="none"/><path d="M 326.769531 321.242188 C 322.5 321.242188 319.042969 317.78125 319.042969 313.515625 L 319.042969 296.535156 C 319.042969 292.269531 322.5 288.808594 326.769531 288.808594 C 331.035156 288.808594 334.496094 292.269531 334.496094 296.535156 L 334.496094 313.515625 C 334.496094 317.78125 331.035156 321.242188 326.769531 321.242188 Z M 326.769531 321.242188 " fill="#3a484a" fill-opacity="1" stroke="none"/><path d="M 314.445312 308.4375 C 311.222656 308.4375 308.21875 306.40625 307.125 303.183594 C 305.757812 299.140625 307.925781 294.757812 311.96875 293.390625 L 335.3125 285.488281 C 339.347656 284.121094 343.738281 286.285156 345.105469 290.328125 C 346.476562 294.371094 344.308594 298.757812 340.265625 300.125 L 316.921875 308.027344 C 316.101562 308.304688 315.265625 308.4375 314.445312 308.4375 Z M 314.445312 308.4375 " fill="#3a484a" fill-opacity="1" stroke="none"/><path d="M 256 326.128906 C 247.015625 326.128906 238.582031 322.375 232.855469 315.824219 C 230.046875 312.609375 230.378906 307.730469 233.589844 304.921875 C 236.800781 302.113281 241.683594 302.441406 244.492188 305.652344 C 247.28125 308.847656 251.476562 310.675781 256 310.675781 C 260.523438 310.675781 264.71875 308.847656 267.507812 305.652344 C 270.316406 302.441406 275.199219 302.113281 278.410156 304.921875 C 281.625 307.730469 281.953125 312.609375 279.144531 315.824219 C 273.417969 322.375 264.984375 326.128906 256 326.128906 Z M 256 326.128906 " fill="#3a484a" fill-opacity="1" stroke="none"/></g><g transform="matrix(0.0976562574505806 0 0 0.0976562574505806 62.5 237.5)" id="L1_17"><path d="M 336.203125 456.738281 C 324.277344 427.5 304.601562 410.191406 291.917969 401.492188 L 127.375 401.492188 C 114.691406 410.199219 95.019531 427.511719 83.09375 456.738281 L 83.089844 456.738281 L 132.300781 484.371094 L 286.992188 484.371094 L 336.207031 456.738281 Z M 336.203125 456.738281 " fill="#d4d4d4" fill-opacity="1" stroke="none"/><path d="M 344.488281 49.265625 L 209.648438 24.632812 L 74.808594 49.261719 C 58.140625 63.335938 43.707031 79.960938 32.109375 98.539062 L 209.648438 123.167969 L 387.1875 98.539062 C 375.589844 79.960938 361.15625 63.335938 344.488281 49.265625 Z M 344.488281 49.265625 " fill="#d4d4d4" fill-opacity="1" stroke="none"/><path d="M 418.457031 197.066406 C 417.480469 180.011719 414.46875 163.519531 409.65625 147.800781 L 209.648438 123.167969 L 9.640625 147.800781 C 4.828125 163.519531 1.816406 180.011719 0.839844 197.0625 L 0.84375 197.0625 L 0.839844 197.074219 L 209.648438 221.707031 L 418.453125 197.074219 L 418.453125 197.0625 L 418.457031 197.0625 Z M 418.457031 197.066406 " fill="#d4d4d4" fill-opacity="1" stroke="none"/><path d="M 415.492188 246.339844 L 209.648438 221.707031 L 3.804688 246.339844 C 6.886719 263.578125 12.097656 280.09375 19.148438 295.59375 L 19.152344 295.59375 L 19.15625 295.613281 L 209.648438 320.246094 L 400.140625 295.613281 L 400.144531 295.59375 L 400.148438 295.59375 C 407.199219 280.09375 412.410156 263.578125 415.492188 246.339844 Z M 415.492188 246.339844 " fill="#d4d4d4" fill-opacity="1" stroke="none"/><path d="M 209.648438 320.246094 L 50.53125 344.878906 C 67.636719 364.921875 88.464844 381.695312 111.949219 394.121094 L 111.972656 394.121094 L 112.011719 394.152344 L 209.648438 406.222656 L 307.285156 394.152344 L 307.324219 394.121094 L 307.351562 394.121094 C 330.832031 381.695312 351.664062 364.921875 368.769531 344.878906 Z M 209.648438 320.246094 " fill="#d4d4d4" fill-opacity="1" stroke="none"/><path d="M 418.796875 209.148438 C 418.796875 221.832031 417.667969 234.277344 415.492188 246.339844 L 3.804688 246.339844 C 1.628906 234.277344 0.5 221.832031 0.5 209.148438 C 0.5 205.089844 0.613281 201.074219 0.84375 197.074219 L 418.457031 197.074219 C 418.683594 201.074219 418.796875 205.089844 418.796875 209.148438 Z M 418.796875 209.148438 " fill="#efedee" fill-opacity="1" stroke="none"/><path d="M 344.488281 49.265625 L 74.808594 49.265625 C 111.214844 18.523438 158.261719 0 209.648438 0 C 261.035156 0 308.082031 18.523438 344.488281 49.265625 Z M 344.488281 49.265625 " fill="#efedee" fill-opacity="1" stroke="none"/><path d="M 409.65625 147.800781 L 9.640625 147.800781 C 15.003906 130.292969 22.605469 113.757812 32.109375 98.539062 L 387.1875 98.539062 C 396.691406 113.757812 404.289062 130.292969 409.65625 147.800781 Z M 409.65625 147.800781 " fill="#efedee" fill-opacity="1" stroke="none"/><path d="M 307.285156 394.152344 C 278.140625 409.570312 244.914062 418.296875 209.648438 418.296875 C 174.382812 418.296875 141.15625 409.570312 112.011719 394.152344 Z M 307.285156 394.152344 " fill="#efedee" fill-opacity="1" stroke="none"/><path d="M 400.140625 295.613281 C 391.992188 313.535156 381.398438 330.089844 368.765625 344.875 L 50.53125 344.875 C 37.898438 330.089844 27.304688 313.535156 19.15625 295.613281 Z M 400.140625 295.613281 " fill="#efedee" fill-opacity="1" stroke="none"/><path d="M 47.542969 197.070312 C 47.246094 201.058594 47.09375 205.085938 47.09375 209.148438 C 47.09375 298.785156 120.015625 371.707031 209.648438 371.707031 C 299.28125 371.707031 372.203125 298.785156 372.203125 209.148438 C 372.203125 205.085938 372.050781 201.058594 371.753906 197.070312 Z M 47.542969 197.070312 " fill="#67c789" fill-opacity="1" stroke="none"/><path d="M 47.574219 221.707031 L 371.722656 221.707031 C 372.039062 217.5625 372.203125 213.375 372.203125 209.148438 C 372.203125 205.085938 372.050781 201.058594 371.753906 197.070312 L 47.542969 197.070312 C 47.246094 201.058594 47.09375 205.085938 47.09375 209.148438 C 47.09375 213.375 47.253906 217.5625 47.574219 221.707031 Z M 47.574219 221.707031 " fill="#5aad77" fill-opacity="1" stroke="none"/><path d="M 303.96875 259 C 299.703125 259 296.242188 255.542969 296.242188 251.273438 L 296.242188 232.933594 C 296.242188 228.667969 299.703125 225.207031 303.96875 225.207031 C 308.238281 225.207031 311.695312 228.667969 311.695312 232.933594 L 311.695312 251.273438 C 311.695312 255.542969 308.238281 259 303.96875 259 Z M 303.96875 259 " fill="#3a484a" fill-opacity="1" stroke="none"/><path d="M 316.460938 285.957031 L 291.480469 285.957031 C 287.214844 285.957031 283.753906 282.5 283.753906 278.230469 C 283.753906 273.964844 287.214844 270.503906 291.480469 270.503906 L 316.460938 270.503906 C 320.726562 270.503906 324.1875 273.964844 324.1875 278.230469 C 324.1875 282.5 320.726562 285.957031 316.460938 285.957031 Z M 316.460938 285.957031 " fill="#f98084" fill-opacity="1" stroke="none"/><path d="M 115.328125 259 C 111.058594 259 107.601562 255.542969 107.601562 251.273438 L 107.601562 232.933594 C 107.601562 228.667969 111.058594 225.207031 115.328125 225.207031 C 119.59375 225.207031 123.054688 228.667969 123.054688 232.933594 L 123.054688 251.273438 C 123.054688 255.542969 119.59375 259 115.328125 259 Z M 115.328125 259 " fill="#3a484a" fill-opacity="1" stroke="none"/><path d="M 127.816406 285.957031 L 102.835938 285.957031 C 98.570312 285.957031 95.109375 282.5 95.109375 278.230469 C 95.109375 273.964844 98.570312 270.503906 102.835938 270.503906 L 127.816406 270.503906 C 132.082031 270.503906 135.542969 273.964844 135.542969 278.230469 C 135.542969 282.5 132.082031 285.957031 127.816406 285.957031 Z M 127.816406 285.957031 " fill="#f98084" fill-opacity="1" stroke="none"/><path d="M 209.648438 284.921875 C 200.84375 284.921875 192.574219 281.238281 186.960938 274.816406 C 184.152344 271.601562 184.480469 266.722656 187.691406 263.914062 C 190.90625 261.105469 195.789062 261.433594 198.59375 264.644531 C 201.273438 267.710938 205.304688 269.46875 209.648438 269.46875 C 213.992188 269.46875 218.023438 267.710938 220.703125 264.644531 C 223.511719 261.433594 228.390625 261.105469 231.605469 263.914062 C 234.816406 266.722656 235.144531 271.605469 232.335938 274.816406 C 226.722656 281.238281 218.453125 284.921875 209.648438 284.921875 Z M 209.648438 284.921875 " fill="#3a484a" fill-opacity="1" stroke="none"/><path d="M 336.207031 456.742188 L 83.089844 456.742188 C 76.941406 471.824219 72.839844 490.097656 72.839844 512 L 346.457031 512 C 346.457031 490.097656 342.355469 471.824219 336.207031 456.742188 Z M 336.207031 456.742188 " fill="#efedee" fill-opacity="1" stroke="none"/></g><g transform="matrix(0.17578125 0 0 0.17578125 217.5 217.5)" id="L1_18"><path d="M 184.222656 396.03125 L 161.597656 451.71875 L 161.597656 492.804688 L 204.421875 512 L 264.0625 512 L 303.625 487.269531 L 303.625 415.847656 L 284.265625 396.03125 Z M 184.222656 396.03125 " fill="#5aad77" fill-opacity="1" stroke="none"/><path d="M 104.113281 473.609375 C 119.203125 416.152344 165.105469 396.027344 165.105469 396.027344 L 184.21875 396.027344 L 184.21875 440.554688 L 204.425781 460.761719 L 184.21875 480.957031 L 184.21875 481.96875 L 204.425781 512 L 144.457031 512 Z M 104.113281 473.609375 " fill="#a66dc2" fill-opacity="1" stroke="none"/><path d="M 144.457031 473.609375 L 144.457031 512 L 99.359375 512 C 99.359375 497.667969 101.140625 484.914062 104.113281 473.609375 Z M 144.457031 473.609375 " fill="#67c789" fill-opacity="1" stroke="none"/><path d="M 324.027344 512 L 264.058594 512 L 284.265625 481.96875 L 284.265625 480.957031 L 264.058594 460.761719 L 284.265625 440.550781 L 284.265625 396.027344 L 303.378906 396.027344 C 303.378906 396.027344 349.285156 416.152344 364.371094 473.605469 Z M 324.027344 512 " fill="#a66dc2" fill-opacity="1" stroke="none"/><path d="M 416.414062 110.757812 C 416.414062 88.355469 401.28125 69.488281 380.675781 63.820312 C 373.605469 61.875 367.976562 56.34375 365.917969 49.300781 C 360.394531 30.375 342.914062 16.550781 322.207031 16.550781 C 313.75 16.550781 305.828125 18.855469 299.042969 22.875 C 289.355469 28.609375 277.070312 26.378906 270.132812 17.507812 C 261.800781 6.851562 248.820312 0 234.242188 0 C 219.664062 0 206.6875 6.851562 198.351562 17.511719 C 191.417969 26.378906 179.132812 28.609375 169.445312 22.875 C 162.65625 18.855469 154.738281 16.550781 146.28125 16.550781 C 125.570312 16.550781 108.089844 30.375 102.566406 49.300781 C 100.511719 56.34375 94.882812 61.875 87.808594 63.820312 C 67.207031 69.488281 52.074219 88.355469 52.074219 110.757812 L 52.074219 152.917969 L 416.414062 152.917969 Z M 416.414062 110.757812 " fill="#fd9ac8" fill-opacity="1" stroke="none"/><path d="M 467.984375 227.515625 C 467.984375 250.851562 449.070312 269.765625 425.738281 269.765625 C 402.40625 269.765625 383.492188 250.851562 383.492188 227.515625 C 383.492188 204.183594 402.40625 185.269531 425.738281 185.269531 C 449.070312 185.269531 467.984375 204.183594 467.984375 227.515625 Z M 467.984375 227.515625 " fill="#5aad77" fill-opacity="1" stroke="none"/><path d="M 84.992188 227.515625 C 84.992188 250.851562 66.078125 269.765625 42.746094 269.765625 C 19.414062 269.765625 0.5 250.851562 0.5 227.515625 C 0.5 204.183594 19.414062 185.269531 42.746094 185.269531 C 66.078125 185.269531 84.992188 204.183594 84.992188 227.515625 Z M 84.992188 227.515625 " fill="#5aad77" fill-opacity="1" stroke="none"/><path d="M 416.414062 110.757812 C 416.414062 107.515625 416.085938 104.355469 415.484375 101.292969 C 410.546875 99.882812 405.339844 99.109375 399.953125 99.109375 C 392.339844 99.109375 384.933594 100.621094 377.898438 103.609375 L 354.304688 92.386719 C 346.75 88.792969 338.335938 86.894531 329.972656 86.894531 C 321.609375 86.894531 313.195312 88.792969 305.640625 92.386719 L 282.105469 103.578125 L 258.574219 92.386719 C 251.019531 88.792969 242.605469 86.894531 234.242188 86.894531 C 225.875 86.894531 217.460938 88.792969 209.90625 92.386719 L 186.375 103.578125 L 162.839844 92.386719 C 155.285156 88.792969 146.875 86.894531 138.507812 86.894531 C 130.144531 86.894531 121.730469 88.792969 114.175781 92.386719 L 90.582031 103.609375 C 83.546875 100.621094 76.140625 99.109375 68.527344 99.109375 C 63.140625 99.109375 57.9375 99.882812 52.996094 101.292969 C 52.394531 104.355469 52.070312 107.515625 52.070312 110.757812 L 52.070312 152.917969 L 416.410156 152.917969 L 416.410156 110.757812 Z M 416.414062 110.757812 " fill="#e671a8" fill-opacity="1" stroke="none"/><path d="M 425.703125 155.796875 C 425.703125 136.875 405.984375 124.417969 388.898438 132.542969 C 381.902344 135.871094 373.777344 135.871094 366.78125 132.542969 L 341.03125 120.296875 C 334.035156 116.96875 325.914062 116.96875 318.914062 120.296875 L 293.167969 132.542969 C 286.171875 135.871094 278.046875 135.871094 271.050781 132.542969 L 245.300781 120.296875 C 238.304688 116.96875 230.183594 116.96875 223.183594 120.296875 L 197.4375 132.542969 C 190.441406 135.871094 182.316406 135.871094 175.320312 132.542969 L 149.570312 120.296875 C 142.574219 116.96875 134.453125 116.96875 127.453125 120.296875 L 101.707031 132.542969 C 94.710938 135.871094 86.585938 135.871094 79.589844 132.542969 C 62.503906 124.417969 42.78125 136.875 42.78125 155.796875 L 42.78125 225.035156 C 44.273438 326.867188 129.414062 408.972656 234.242188 408.972656 C 339.074219 408.972656 424.214844 326.867188 425.703125 225.035156 Z M 425.703125 155.796875 " fill="#67c789" fill-opacity="1" stroke="none"/><path d="M 327.359375 236.339844 C 323.089844 236.339844 319.632812 232.878906 319.632812 228.613281 L 319.632812 210.507812 C 319.632812 206.238281 323.089844 202.78125 327.359375 202.78125 C 331.625 202.78125 335.085938 206.238281 335.085938 210.507812 L 335.085938 228.613281 C 335.085938 232.878906 331.625 236.339844 327.359375 236.339844 Z M 327.359375 236.339844 " fill="#3a484a" fill-opacity="1" stroke="none"/><path d="M 339.6875 262.949219 L 315.027344 262.949219 C 310.761719 262.949219 307.300781 259.492188 307.300781 255.222656 C 307.300781 250.957031 310.761719 247.496094 315.027344 247.496094 L 339.6875 247.496094 C 343.953125 247.496094 347.414062 250.957031 347.414062 255.222656 C 347.414062 259.492188 343.953125 262.949219 339.6875 262.949219 Z M 339.6875 262.949219 " fill="#f98084" fill-opacity="1" stroke="none"/><path d="M 141.128906 236.339844 C 136.863281 236.339844 133.402344 232.878906 133.402344 228.613281 L 133.402344 210.507812 C 133.402344 206.238281 136.863281 202.78125 141.128906 202.78125 C 145.394531 202.78125 148.855469 206.238281 148.855469 210.507812 L 148.855469 228.613281 C 148.855469 232.878906 145.394531 236.339844 141.128906 236.339844 Z M 141.128906 236.339844 " fill="#3a484a" fill-opacity="1" stroke="none"/><path d="M 153.457031 262.949219 L 128.796875 262.949219 C 124.53125 262.949219 121.074219 259.492188 121.074219 255.222656 C 121.074219 250.957031 124.53125 247.496094 128.796875 247.496094 L 153.457031 247.496094 C 157.726562 247.496094 161.183594 250.957031 161.183594 255.222656 C 161.183594 259.492188 157.726562 262.949219 153.457031 262.949219 Z M 153.457031 262.949219 " fill="#f98084" fill-opacity="1" stroke="none"/><path d="M 245.996094 248.96875 L 222.492188 248.96875 C 214.023438 248.96875 207.15625 255.835938 207.15625 264.304688 C 207.15625 272.773438 214.023438 279.640625 222.492188 279.640625 L 245.996094 279.640625 C 254.464844 279.640625 261.328125 272.773438 261.328125 264.304688 C 261.328125 255.835938 254.464844 248.96875 245.996094 248.96875 Z M 245.996094 248.96875 " fill="#3a484a" fill-opacity="1" stroke="none"/><path d="M 369.125 512 L 324.027344 512 L 324.027344 473.609375 L 364.371094 473.609375 C 367.34375 484.914062 369.125 497.667969 369.125 512 Z M 369.125 512 " fill="#67c789" fill-opacity="1" stroke="none"/><path d="M 229.132812 312.488281 C 224.863281 312.488281 221.40625 309.027344 221.40625 304.761719 L 221.40625 279.640625 C 221.40625 275.375 224.863281 271.914062 229.132812 271.914062 C 233.398438 271.914062 236.859375 275.375 236.859375 279.640625 L 236.859375 304.761719 C 236.859375 309.027344 233.398438 312.488281 229.132812 312.488281 Z M 229.132812 312.488281 " fill="#ff6668" fill-opacity="1" stroke="none"/></g></defs><g fi:class="KUsePattern"><pattern id="pattern_L1_1" width="350" height="350" patternUnits="userSpaceOnUse"><use xlink:href="#L1_1" x="-350" y="-350"/><use xlink:href="#L1_1" x="0" y="-350"/><use xlink:href="#L1_1" x="350" y="-350"/><use xlink:href="#L1_1" x="-350" y="0"/><use xlink:href="#L1_1" x="0" y="0"/><use xlink:href="#L1_1" x="350" y="0"/><use xlink:href="#L1_1" x="-350" y="350"/><use xlink:href="#L1_1" x="0" y="350"/><use xlink:href="#L1_1" x="350" y="350"/></pattern><rect x="0" y="0" width="100%" height="100%" fill="url(#pattern_L1_1)"/></g><g fi:class="KUsePattern"><pattern id="pattern_L1_3" width="350" height="350" patternUnits="userSpaceOnUse"><use xlink:href="#L1_3" x="-350" y="-350"/><use xlink:href="#L1_3" x="0" y="-350"/><use xlink:href="#L1_3" x="350" y="-350"/><use xlink:href="#L1_3" x="-350" y="0"/><use xlink:href="#L1_3" x="0" y="0"/><use xlink:href="#L1_3" x="350" y="0"/><use xlink:href="#L1_3" x="-350" y="350"/><use xlink:href="#L1_3" x="0" y="350"/><use xlink:href="#L1_3" x="350" y="350"/></pattern><rect x="0" y="0" width="100%" height="100%" fill="url(#pattern_L1_3)"/></g><g fi:class="KUsePattern"><pattern id="pattern_L1_5" width="350" height="350" patternUnits="userSpaceOnUse"><use xlink:href="#L1_5" x="-350" y="-350"/><use xlink:href="#L1_5" x="0" y="-350"/><use xlink:href="#L1_5" x="350" y="-350"/><use xlink:href="#L1_5" x="-350" y="0"/><use xlink:href="#L1_5" x="0" y="0"/><use xlink:href="#L1_5" x="350" y="0"/><use xlink:href="#L1_5" x="-350" y="350"/><use xlink:href="#L1_5" x="0" y="350"/><use xlink:href="#L1_5" x="350" y="350"/></pattern><rect x="0" y="0" width="100%" height="100%" fill="url(#pattern_L1_5)"/></g><g fi:class="KUsePattern"><pattern id="pattern_L1_7" width="350" height="350" patternUnits="userSpaceOnUse"><use xlink:href="#L1_7" x="-350" y="-350"/><use xlink:href="#L1_7" x="0" y="-350"/><use xlink:href="#L1_7" x="350" y="-350"/><use xlink:href="#L1_7" x="-350" y="0"/><use xlink:href="#L1_7" x="0" y="0"/><use xlink:href="#L1_7" x="350" y="0"/><use xlink:href="#L1_7" x="-350" y="350"/><use xlink:href="#L1_7" x="0" y="350"/><use xlink:href="#L1_7" x="350" y="350"/></pattern><rect x="0" y="0" width="100%" height="100%" fill="url(#pattern_L1_7)"/></g><g fi:class="KUsePattern"><pattern id="pattern_L1_9" width="350" height="350" patternUnits="userSpaceOnUse"><use xlink:href="#L1_9" x="-350" y="-350"/><use xlink:href="#L1_9" x="0" y="-350"/><use xlink:href="#L1_9" x="350" y="-350"/><use xlink:href="#L1_9" x="-350" y="0"/><use xlink:href="#L1_9" x="0" y="0"/><use xlink:href="#L1_9" x="350" y="0"/><use xlink:href="#L1_9" x="-350" y="350"/><use xlink:href="#L1_9" x="0" y="350"/><use xlink:href="#L1_9" x="350" y="350"/></pattern><rect x="0" y="0" width="100%" height="100%" fill="url(#pattern_L1_9)"/></g><g fi:class="KUsePattern"><pattern id="pattern_L1_11" width="350" height="350" patternUnits="userSpaceOnUse"><use xlink:href="#L1_11" x="-350" y="-350"/><use xlink:href="#L1_11" x="0" y="-350"/><use xlink:href="#L1_11" x="350" y="-350"/><use xlink:href="#L1_11" x="-350" y="0"/><use xlink:href="#L1_11" x="0" y="0"/><use xlink:href="#L1_11" x="350" y="0"/><use xlink:href="#L1_11" x="-350" y="350"/><use xlink:href="#L1_11" x="0" y="350"/><use xlink:href="#L1_11" x="350" y="350"/></pattern><rect x="0" y="0" width="100%" height="100%" fill="url(#pattern_L1_11)"/></g><g fi:class="KUsePattern"><pattern id="pattern_L1_13" width="350" height="350" patternUnits="userSpaceOnUse"><use xlink:href="#L1_13" x="-350" y="-350"/><use xlink:href="#L1_13" x="0" y="-350"/><use xlink:href="#L1_13" x="350" y="-350"/><use xlink:href="#L1_13" x="-350" y="0"/><use xlink:href="#L1_13" x="0" y="0"/><use xlink:href="#L1_13" x="350" y="0"/><use xlink:href="#L1_13" x="-350" y="350"/><use xlink:href="#L1_13" x="0" y="350"/><use xlink:href="#L1_13" x="350" y="350"/></pattern><rect x="0" y="0" width="100%" height="100%" fill="url(#pattern_L1_13)"/></g><g fi:class="KUsePattern"><pattern id="pattern_L1_15" width="350" height="350" patternUnits="userSpaceOnUse"><use xlink:href="#L1_15" x="-350" y="-350"/><use xlink:href="#L1_15" x="0" y="-350"/><use xlink:href="#L1_15" x="350" y="-350"/><use xlink:href="#L1_15" x="-350" y="0"/><use xlink:href="#L1_15" x="0" y="0"/><use xlink:href="#L1_15" x="350" y="0"/><use xlink:href="#L1_15" x="-350" y="350"/><use xlink:href="#L1_15" x="0" y="350"/><use xlink:href="#L1_15" x="350" y="350"/></pattern><rect x="0" y="0" width="100%" height="100%" fill="url(#pattern_L1_15)"/></g><g fi:class="KUsePattern"><pattern id="pattern_L1_17" width="350" height="350" patternUnits="userSpaceOnUse"><use xlink:href="#L1_17" x="-350" y="-350"/><use xlink:href="#L1_17" x="0" y="-350"/><use xlink:href="#L1_17" x="350" y="-350"/><use xlink:href="#L1_17" x="-350" y="0"/><use xlink:href="#L1_17" x="0" y="0"/><use xlink:href="#L1_17" x="350" y="0"/><use xlink:href="#L1_17" x="-350" y="350"/><use xlink:href="#L1_17" x="0" y="350"/><use xlink:href="#L1_17" x="350" y="350"/></pattern><rect x="0" y="0" width="100%" height="100%" fill="url(#pattern_L1_17)"/></g><g fi:class="KUsePattern"><pattern id="pattern_L1_18" width="350" height="350" patternUnits="userSpaceOnUse"><use xlink:href="#L1_18" x="-350" y="-350"/><use xlink:href="#L1_18" x="0" y="-350"/><use xlink:href="#L1_18" x="350" y="-350"/><use xlink:href="#L1_18" x="-350" y="0"/><use xlink:href="#L1_18" x="0" y="0"/><use xlink:href="#L1_18" x="350" y="0"/><use xlink:href="#L1_18" x="-350" y="350"/><use xlink:href="#L1_18" x="0" y="350"/><use xlink:href="#L1_18" x="350" y="350"/></pattern><rect x="0" y="0" width="100%" height="100%" fill="url(#pattern_L1_18)"/></g></svg>