<svg height="512pt" viewBox="0 0 512 512" width="512pt" xmlns="http://www.w3.org/2000/svg"><path d="m439 372c5.519531 0 10-4.480469 10-10s-4.480469-10-10-10-10 4.480469-10 10 4.480469 10 10 10zm0 0"/><path d="m93 252c5.519531 0 10-4.480469 10-10s-4.480469-10-10-10-10 4.480469-10 10 4.480469 10 10 10zm0 0"/><path d="m133 492c7.855469 0 15.695312-.972656 23.359375-2.882812 14.25 4.1875 28.625 3.8125 42.507813-1.132813 14.992187 15.34375 35.421874 24.015625 57.132812 24.015625 21.714844 0 42.148438-8.675781 57.132812-24.011719 13.867188 4.9375 28.253907 5.324219 42.503907 1.128907 7.671875 1.910156 15.511719 2.882812 23.363281 2.882812 34.996094 0 69.414062-19.644531 94.425781-53.894531 24.875-34.058594 38.574219-78.84375 38.574219-126.105469 0-104.574219-66.828125-188.253906-144.292969-179.339844-16.085937-13.523437-33.859375-20.660156-51.707031-20.660156-1.628906 0-3.257812.078125-4.886719.199219-9.390625-23.328125-15.113281-53.628907-15.113281-81.050781v-21.148438c0-5.523438-4.476562-10-10-10h-60c-5.523438 0-10 4.476562-10 10v21.148438c0 27.421874-5.722656 57.722656-15.113281 81.050781-1.628907-.121094-3.257813-.199219-4.886719-.199219-17.839844 0-35.601562 7.140625-51.683594 20.675781-3.753906-.445312-7.546875-.675781-11.316406-.675781-34.996094 0-69.414062 19.644531-94.425781 53.894531-24.875 34.058594-38.574219 78.84375-38.574219 126.105469s13.699219 92.046875 38.574219 126.105469c25.011719 34.25 59.429687 53.894531 94.425781 53.894531zm103-460.851562v-11.148438h40v11.148438c0 29.121093 5.65625 60.226562 15.363281 85.539062-2.847656 1.097656-5.667969 2.371094-8.445312 3.847656-8.59375-5.667968-17.621094-8.535156-26.917969-8.535156s-18.324219 2.867188-26.917969 8.535156c-2.777343-1.476562-5.597656-2.75-8.445312-3.847656 9.707031-25.3125 15.363281-56.421875 15.363281-85.539062zm-110.382812 121.21875c-10.691407 13.851562-19.660157 30.621093-26.359376 49.484374-1.851562 5.207032.871094 10.921876 6.074219 12.773438 5.183594 1.839844 10.914063-.851562 12.769531-6.078125 8.453126-23.792969 20.742188-43.65625 35.535157-57.4375 16.242187-15.132813 34.277343-21.558594 51.375-18.234375.011719 0 .019531.003906.035156.007812.011719.003907.023437.007813.039063.011719.023437.003907.042968.011719.0625.015625 2.617187.519532 5.226562 1.277344 7.816406 2.246094-9.28125 10.941406-17.660156 25.585938-24.605469 43.167969-2.03125 5.140625.488281 10.949219 5.625 12.976562 5.140625 2.027344 10.945313-.488281 12.976563-5.625 8.46875-21.4375 26.023437-53.675781 49.039062-53.675781 22.976562 0 40.535156 32.140625 49.039062 53.675781 2.039063 5.160157 7.863282 7.644531 12.976563 5.625 5.136719-2.03125 7.65625-7.839843 5.625-12.976562-6.945313-17.582031-15.324219-32.226563-24.605469-43.167969 2.589844-.96875 5.199219-1.730469 7.816406-2.25.046876-.007812.089844-.023438.136719-.035156 17.105469-3.324219 35.148438 3.101562 51.394531 18.210937 14.175782 13.179688 26.070313 31.988281 34.402344 54.402344 1.929688 5.183594 7.691406 7.808594 12.859375 5.886719 5.175781-1.921875 7.8125-7.679688 5.886719-12.855469-6.496094-17.484375-15.027344-33.125-25.097656-46.167969 59.402344 5.648438 105.566406 78.019532 105.566406 159.652344 0 82.765625-47.125 153.269531-104.664062 159.542969 18.925781-15.851563 34.996093-40.058594 45.40625-69.398438 1.851562-5.203125-.871094-10.921875-6.078126-12.769531-5.199218-1.847656-10.921874.875-12.769531 6.078125-13.347656 37.617187-36.421875 65.203125-61.726562 73.789063-8.765625 2.984374-17.597657 3.523437-26.25 1.636718 4.726562-8.480468 7.886719-17.785156 9.269531-27.460937.785156-5.46875-3.015625-10.535157-8.480469-11.316407-5.46875-.785156-10.53125 3.015626-11.316406 8.484376-4.074219 28.480468-28.578125 51.414062-59.390625 51.414062-30.726562 0-55.304688-22.851562-59.390625-51.417969-.78125-5.464843-5.859375-9.261719-11.316406-8.480469-5.46875.78125-9.265625 5.847657-8.480469 11.3125 1.382812 9.679688 4.542969 18.984376 9.269531 27.464844-8.648437 1.886719-17.480469 1.347656-26.269531-1.640625-24.570312-8.332031-47.222656-34.769531-60.601562-70.726562-1.925782-5.175781-7.683594-7.8125-12.855469-5.886719-5.179688 1.925781-7.8125 7.683594-5.886719 12.859375 10.464844 28.128906 25.78125 50.894531 43.921875 66.027344-57.414063-6.464844-104.390625-76.878907-104.390625-159.511719 0-83.222656 47.648438-154.035156 105.617188-159.632812zm0 0"/><path d="m142.089844 293.265625 75.179687-27.359375c3.464844-1.261719 5.957031-4.328125 6.480469-7.976562.523438-3.652344-1.007812-7.292969-3.976562-9.480469l-58.109376-42.695313c-2.695312-1.980468-6.203124-2.484375-9.34375-1.339844-3.140624 1.144532-5.503906 3.78125-6.296874 7.027344l-17.070313 70.0625c-.871094 3.582032.300781 7.355469 3.046875 9.816406 2.746094 2.457032 6.621094 3.207032 10.089844 1.945313zm19.816406-62.515625 30.964844 22.753906-40.0625 14.578125zm0 0"/><path d="m294.730469 265.90625 75.179687 27.359375c3.464844 1.261719 7.34375.515625 10.09375-1.945313 2.746094-2.460937 3.914063-6.234374 3.042969-9.816406l-17.070313-70.0625c-.792968-3.246094-3.15625-5.882812-6.296874-7.027344-3.140626-1.144531-6.648438-.640624-9.339844 1.339844l-58.109375 42.695313c-2.972657 2.1875-4.5 5.828125-3.976563 9.480469.519532 3.648437 3.011719 6.714843 6.476563 7.976562zm55.363281-35.15625 9.097656 37.332031-40.0625-14.578125zm0 0"/><path d="m243.070312 309.070312 12.929688-12.929687 12.929688 12.929687c3.90625 3.90625 10.234374 3.90625 14.140624 0s3.90625-10.234374 0-14.140624l-20-20c-3.90625-3.90625-10.234374-3.90625-14.140624 0l-20 20c-3.90625 3.902343-3.90625 10.234374 0 14.140624s10.234374 3.90625 14.140624 0zm0 0"/><path d="m137.003906 351.433594c19.507813 48.78125 66.675782 80.566406 118.996094 80.566406 52.429688 0 99.523438-31.882812 118.992188-80.566406l10.292968-25.71875c1.445313-3.613282.660156-7.742188-2.011718-10.574219-2.671876-2.832031-6.746094-3.859375-10.4375-2.625-19.007813 6.339844-38.660157 11.152344-58.414063 14.3125-4.851563.773437-8.421875 4.960937-8.421875 9.875v15.296875h-20v-11.53125c0-2.742188-1.128906-5.367188-3.121094-7.253906-1.988281-1.890625-4.667968-2.871094-7.410156-2.730469-12.917969.6875-26.019531.6875-38.9375 0-2.75-.144531-5.421875.839844-7.410156 2.730469-1.992188 1.886718-3.121094 4.511718-3.121094 7.253906v11.53125h-20v-15.300781c0-4.914063-3.566406-9.097657-8.417969-9.875-19.785156-3.167969-39.441406-7.980469-58.417969-14.3125-3.691406-1.230469-7.769531-.207031-10.4375 2.625-2.671874 2.835937-3.457031 6.960937-2.011718 10.578125zm48.996094-6.300782v16.867188c0 5.523438 4.476562 10 10 10h40c5.523438 0 10-4.476562 10-10v-11.128906c6.660156.171875 13.339844.171875 20 0v11.128906c0 5.523438 4.476562 10 10 10h40c5.523438 0 10-4.476562 10-10v-16.867188c11.078125-2.023437 22.101562-4.539062 32.984375-7.523437l-2.558594 6.398437c-16.519531 41.304688-55.9375 67.992188-100.425781 67.992188-44.160156 0-83.964844-26.832031-100.425781-67.992188l-2.558594-6.398437c10.875 2.980469 21.898437 5.496094 32.984375 7.523437zm0 0"/></svg>