<?xml version="1.0" encoding="UTF-8" standalone="no"?>
<svg
   xmlns:dc="http://purl.org/dc/elements/1.1/"
   xmlns:cc="http://creativecommons.org/ns#"
   xmlns:rdf="http://www.w3.org/1999/02/22-rdf-syntax-ns#"
   xmlns:svg="http://www.w3.org/2000/svg"
   xmlns="http://www.w3.org/2000/svg"
   viewBox="0 0 501.33334 501.33334"
   height="100%"
   width="100%"
   xml:space="preserve"
   id="svg2"
   version="1.1"><metadata
     id="metadata8"><rdf:RDF><cc:Work
         rdf:about=""><dc:format>image/svg+xml</dc:format><dc:type
           rdf:resource="http://purl.org/dc/dcmitype/StillImage" /></cc:Work></rdf:RDF></metadata><defs
     id="defs6" /><g
     transform="matrix(1.3333333,0,0,-1.3333333,0,501.33333)"
     id="g10"><g
       transform="scale(0.1)"
       id="g12"><path
         id="path18"
         style="fill:#0da8d2;fill-opacity:1;fill-rule:nonzero;stroke:none"
         d="m 2920.68,2478.72 c -56.71,0 -107.87,27.79 -138.58,73.15 -30.69,-45.36 -81.87,-73.15 -138.56,-73.15 -56.71,0 -107.88,27.79 -138.58,73.15 -30.7,-45.36 -81.87,-73.15 -138.58,-73.15 -56.7,0 -107.87,27.79 -138.58,73.15 -30.7,-45.36 -81.87,-73.15 -138.57,-73.15 -56.7,0 -107.88,27.79 -138.58,73.15 -30.69,-45.36 -81.87,-73.15 -138.57,-73.15 -55.46,0 -105.32,26.9 -136.03,69.67 V 2425.75 H 821.637 v -898.43 h 854.413 v -86.95 h 1294.38 v 1045.95 c -15.79,-4.87 -32.48,-7.6 -49.75,-7.6" /><path
         id="path20"
         style="fill:none;stroke:#55606d;stroke-width:30;stroke-linecap:round;stroke-linejoin:round;stroke-miterlimit:10;stroke-dasharray:none;stroke-opacity:1"
         d="m 2920.68,2478.72 c -56.71,0 -107.87,27.79 -138.58,73.15 -30.69,-45.36 -81.87,-73.15 -138.56,-73.15 -56.71,0 -107.88,27.79 -138.58,73.15 -30.7,-45.36 -81.87,-73.15 -138.58,-73.15 -56.7,0 -107.87,27.79 -138.58,73.15 -30.7,-45.36 -81.87,-73.15 -138.57,-73.15 -56.7,0 -107.88,27.79 -138.58,73.15 -30.69,-45.36 -81.87,-73.15 -138.57,-73.15 -55.46,0 -105.32,26.9 -136.03,69.67 V 2425.75 H 821.637 v -898.43 h 854.413 v -86.95 h 1294.38 v 1045.95 c -15.79,-4.87 -32.48,-7.6 -49.75,-7.6 z" /><path
         id="path22"
         style="fill:#24b26a;fill-opacity:1;fill-rule:nonzero;stroke:none"
         d="m 2742.35,3180.78 c -126.74,89.46 -159.63,16.78 -76.26,-83.8 19.54,-25.16 37.69,-51.4 54.73,-78.43 -73.35,47.56 -180.53,103.13 -206.83,42.21 -27.54,-63.76 32.39,-119.08 156.99,-258.74 -78.13,33.78 -128.96,55.89 -146.93,5.59 -28.39,-79.41 423.81,-423.39 150.94,-898.6 -178.64,-237.7 -462.91,-391.45 -783.18,-391.45 -507.42,3.49 -706.35,470.5 -706.35,470.5 h 410.55 c 95.87,32.69 177.19,100.27 227.4,188.07 H 975.23 c -7.742,0 -14.75,4.55 -17.894,11.62 -3.152,7.07 -1.844,15.33 3.328,21.08 l 97.616,108.46 c 3.72,4.14 9.01,6.49 14.57,6.49 h 800.9 c 2.56,18.65 3.86,37.58 3.86,56.47 v 117.64 c 0,228.41 -185.82,414.23 -414.23,414.23 h -212.36 c -5.71,0 -11.13,2.49 -14.85,6.82 -49.3,57.36 -120.84,90.26 -196.29,90.26 -75.446,0 -146.989,-32.9 -196.286,-90.26 -3.715,-4.33 -9.141,-6.82 -14.856,-6.82 h -15.191 c -80.649,-0.92 -187.609,-138.42 -223.219,-201 -20.422,-34.38 -41.152,-74.02 -62.035,-119.78 -85.41,-187.21 -133,-395.31 -133,-614.53 0,-818.66 663.657,-1482.31 1482.317,-1482.31 818.66,0 1482.31,663.65 1482.31,1482.31 0,495.92 -243.55,934.91 -617.57,1203.97" /><path
         id="path24"
         style="fill:#ffffff;fill-opacity:1;fill-rule:nonzero;stroke:none"
         d="m 1741.09,2224.8 -51.19,88.37 c -2.62,4.54 -2.64,10.13 -0.04,14.67 2.61,4.55 7.43,7.37 12.67,7.39 l 101.34,0.59 c 0.03,0 0.06,0 0.09,0 5.2,0 10.02,-2.75 12.66,-7.25 2.65,-4.51 2.71,-10.1 0.13,-14.66 l -50.15,-88.96 c -2.59,-4.59 -7.44,-7.44 -12.71,-7.47 -0.03,0 -0.06,0 -0.09,0 -5.24,0 -10.08,2.79 -12.71,7.32" /><path
         id="path26"
         style="fill:#ffffff;fill-opacity:1;fill-rule:nonzero;stroke:none"
         d="m 1354.52,2224.8 -51.19,88.37 c -2.62,4.54 -2.64,10.13 -0.03,14.67 2.6,4.55 7.42,7.37 12.66,7.39 l 101.34,0.59 c 5.24,-0.4 10.09,-2.73 12.75,-7.25 2.65,-4.51 2.7,-10.1 0.13,-14.66 l -50.15,-88.96 c -2.58,-4.59 -7.44,-7.44 -12.71,-7.47 -0.03,0 -0.06,0 -0.09,0 -5.23,0 -10.08,2.79 -12.71,7.32" /><path
         id="path28"
         style="fill:#ffffff;fill-opacity:1;fill-rule:nonzero;stroke:none"
         d="m 1547.81,2224.8 -51.19,88.37 c -2.63,4.54 -2.64,10.13 -0.04,14.67 2.6,4.55 7.42,7.37 12.66,7.39 l 101.34,0.59 c 0.03,0 0.06,0 0.09,0 5.2,0 10.02,-2.75 12.66,-7.25 2.66,-4.51 2.71,-10.1 0.14,-14.66 l -50.15,-88.96 c -2.59,-4.59 -7.45,-7.44 -12.71,-7.47 -0.03,0 -0.06,0 -0.09,0 -5.24,0 -10.09,2.79 -12.71,7.32" /><path
         id="path30"
         style="fill:#ffffff;fill-opacity:1;fill-rule:nonzero;stroke:none"
         d="m 1161.24,2224.8 -51.19,88.37 c -2.62,4.54 -2.64,10.13 -0.04,14.67 2.61,4.55 7.43,7.37 12.67,7.39 l 101.33,0.59 c 0.03,0 0.06,0 0.09,0 5.2,0 10.03,-2.75 12.66,-7.25 2.66,-4.51 2.71,-10.1 0.14,-14.66 l -50.15,-88.96 c -2.59,-4.59 -7.44,-7.45 -12.72,-7.47 -0.03,0 -0.05,0 -0.08,0 -5.24,0 -10.09,2.79 -12.71,7.32" /><path
         id="path32"
         style="fill:#55606d;fill-opacity:1;fill-rule:nonzero;stroke:none"
         d="m 732.898,2093.18 c 8.961,0 16.258,-7.29 16.258,-16.25 0,-8.97 -7.297,-16.26 -16.258,-16.26 -8.96,0 -16.257,7.29 -16.257,16.26 0,8.96 7.297,16.25 16.257,16.25 z m 122.938,-206.34 c -7.52,2.97 -16.078,-0.72 -19.063,-8.27 -15.136,-38.29 -49.246,-64.43 -89.179,-69.64 v 139.82 h 69.125 c 8.117,0 14.691,6.58 14.691,14.7 0,8.11 -6.574,14.69 -14.691,14.69 h -69.125 v 55.79 c 17.933,6.15 30.945,23 30.945,43 0,25.16 -20.473,45.64 -45.641,45.64 -25.164,0 -45.636,-20.48 -45.636,-45.64 0,-20 13.011,-36.85 30.945,-43 v -55.79 h -69.125 c -8.121,0 -14.695,-6.58 -14.695,-14.69 0,-8.12 6.574,-14.7 14.695,-14.7 h 69.125 v -139.82 c -39.941,5.21 -74.043,31.35 -89.184,69.64 -2.976,7.56 -11.535,11.23 -19.062,8.27 -7.543,-2.99 -11.246,-11.52 -8.262,-19.07 21.43,-54.21 72.93,-89.24 131.199,-89.24 58.274,0 109.774,35.03 131.204,89.24 2.984,7.55 -0.719,16.08 -8.266,19.07" /><path
         id="path34"
         style="fill:#ffffff;fill-opacity:1;fill-rule:nonzero;stroke:none"
         d="m 1581.65,1321.6 c 11.55,1.65 56.05,6.08 84.7,-18.11 16.05,-13.56 24.98,-34.8 26.78,-63.12 -11.7,-10.07 -54.65,-41.14 -162.43,-66.72 7.52,33.54 3.98,63.08 -10.88,87.99 -7.51,12.57 -17.23,22.64 -27.68,30.79 47.02,7.78 79.12,23.5 89.51,29.17" /><path
         id="path36"
         style="fill:none;stroke:#ffffff;stroke-width:10;stroke-linecap:butt;stroke-linejoin:miter;stroke-miterlimit:10;stroke-dasharray:none;stroke-opacity:1"
         d="m 1581.65,1321.6 c 11.55,1.65 56.05,6.08 84.7,-18.11 16.05,-13.56 24.98,-34.8 26.78,-63.12 -11.7,-10.07 -54.65,-41.14 -162.43,-66.72 7.52,33.54 3.98,63.08 -10.88,87.99 -7.51,12.57 -17.23,22.64 -27.68,30.79 47.02,7.78 79.12,23.5 89.51,29.17 z" /><path
         id="path38"
         style="fill:#ffffff;fill-opacity:1;fill-rule:nonzero;stroke:none"
         d="m 1613.21,1104.81 c -8.31,16.09 -20.66,29.46 -36.64,40.27 76.09,21.57 116.05,45.25 135.17,59.84 1.34,-0.09 2.69,-0.07 4.05,0.13 40.46,5.68 70.74,-0.64 90,-18.8 20.77,-19.57 25.06,-49.23 25.8,-65.08 -0.56,-0.76 -1.13,-1.51 -1.59,-2.37 -0.35,-0.57 -34.15,-52.63 -207.49,-95.59 4.32,22.19 5.58,52.85 -9.3,81.6" /><path
         id="path40"
         style="fill:none;stroke:#ffffff;stroke-width:10;stroke-linecap:butt;stroke-linejoin:miter;stroke-miterlimit:10;stroke-dasharray:none;stroke-opacity:1"
         d="m 1613.21,1104.81 c -8.31,16.09 -20.66,29.46 -36.64,40.27 76.09,21.57 116.05,45.25 135.17,59.84 1.34,-0.09 2.69,-0.07 4.05,0.13 40.46,5.68 70.74,-0.64 90,-18.8 20.77,-19.57 25.06,-49.23 25.8,-65.08 -0.56,-0.76 -1.13,-1.51 -1.59,-2.37 -0.35,-0.57 -34.15,-52.63 -207.49,-95.59 4.32,22.19 5.58,52.85 -9.3,81.6 z" /><path
         id="path42"
         style="fill:#ffffff;fill-opacity:1;fill-rule:nonzero;stroke:none"
         d="m 1970.9,1002.7 c -81.45,-70.528 -166.34,-115.751 -253.78,-135.759 11.88,32.258 11.54,61 -1.31,85.649 -10.14,19.43 -26.72,33.289 -44.33,43.148 123.24,35.562 169.67,75.372 185.6,94.052 19.81,4.43 71.91,8.9 97.74,-15.56 15.23,-14.44 20.63,-38.48 16.08,-71.53" /><path
         id="path44"
         style="fill:none;stroke:#ffffff;stroke-width:10;stroke-linecap:butt;stroke-linejoin:miter;stroke-miterlimit:10;stroke-dasharray:none;stroke-opacity:1"
         d="m 1970.9,1002.7 c -81.45,-70.528 -166.34,-115.751 -253.78,-135.759 11.88,32.258 11.54,61 -1.31,85.649 -10.14,19.43 -26.72,33.289 -44.33,43.148 123.24,35.562 169.67,75.372 185.6,94.052 19.81,4.43 71.91,8.9 97.74,-15.56 15.23,-14.44 20.63,-38.48 16.08,-71.53 z" /><path
         id="path46"
         style="fill:#55606d;fill-opacity:1;fill-rule:nonzero;stroke:none"
         d="m 1970.9,1002.7 c -81.45,-70.528 -166.34,-115.751 -253.78,-135.759 11.88,32.258 11.54,61 -1.31,85.649 -10.14,19.43 -26.72,33.289 -44.33,43.148 123.24,35.562 169.67,75.372 185.6,94.052 19.81,4.43 71.91,8.9 97.74,-15.56 15.23,-14.44 20.63,-38.48 16.08,-71.53 z m -357.69,102.11 c -8.31,16.09 -20.66,29.46 -36.64,40.27 76.09,21.57 116.05,45.25 135.17,59.84 1.34,-0.09 2.69,-0.07 4.05,0.13 40.46,5.68 70.74,-0.64 90,-18.8 20.77,-19.57 25.06,-49.23 25.8,-65.08 -0.56,-0.76 -1.13,-1.51 -1.59,-2.37 -0.35,-0.57 -34.15,-52.63 -207.49,-95.59 4.32,22.19 5.58,52.85 -9.3,81.6 z m -31.56,216.79 c 11.55,1.65 56.05,6.08 84.7,-18.11 16.05,-13.56 24.98,-34.8 26.78,-63.12 -11.7,-10.07 -54.65,-41.14 -162.43,-66.72 7.52,33.54 3.98,63.08 -10.88,87.99 -7.51,12.57 -17.23,22.64 -27.68,30.79 47.02,7.78 79.12,23.5 89.51,29.17 z m 399.98,-218.81 c -32.46,30.63 -82.28,31.3 -111.47,28.45 -2.22,23.03 -10.29,57.7 -37.22,83.25 -24.35,23.13 -58.19,33.67 -100.85,31.48 -2.98,38 -16.62,67.42 -40.69,87.64 -47.57,39.94 -117.26,26.55 -120.21,25.97 -2.36,-0.39 -4.37,-1.28 -6.28,-2.44 -10.42,-6.24 -257.95,-148.32 -506.24,235.3 -5.87,9.08 -18,11.68 -27.09,5.8 -9.08,-5.88 -11.68,-18.01 -5.8,-27.09 76.47,-118.15 203.29,-262.13 374.55,-281.08 2.72,-2.24 64.3,-12.18 85.93,-48.67 11.66,-19.65 11.99,-45.36 1.3,-76.35 -234.85,-33.02 -427.52,263.97 -429.49,267.05 -5.82,9.12 -17.91,11.78 -27.04,5.99 -9.13,-5.81 -11.81,-17.91 -6,-27.04 2.19,-3.43 54.48,-84.88 139.95,-160.81 115.24,-102.36 235.44,-144.12 347.61,-120.76 0.68,0.14 1.32,0.29 2,0.43 31.81,-8.37 53.21,-22.75 63.72,-42.89 14.48,-27.74 5.57,-60.79 1.1,-73.68 -0.5,-0.1 -0.97,-0.21 -1.47,-0.31 -260.27,-24.979 -481.18,236.24 -483.39,238.88 -6.92,8.31 -19.26,9.45 -27.58,2.53 -8.31,-6.92 -9.45,-19.26 -2.53,-27.58 2.38,-2.87 59.41,-70.93 151.47,-136.49 123.03,-87.62 249.91,-127.811 366.92,-116.229 0.69,0.07 1.38,0.168 2.07,0.308 6.34,1.321 69.11,4.403 96.17,-39.98 9.94,-19.059 6.27,-44.571 -10.69,-75.778 -42.76,-5.312 -86.07,-4.851 -129.87,1.801 -375.09,56.957 -669.74,534.098 -672.666,538.908 -5.637,9.25 -17.723,12.18 -26.922,6.54 -9.238,-5.61 -12.172,-17.66 -6.543,-26.91 3.082,-5.07 76.91,-125.51 199.931,-255.17 114.33,-120.5 293.93,-270.731 500.21,-302.079 61.66,-9.39 122.31,-7.84 181.77,4.539 98.97,20.61 194.62,71.282 285.81,151.621 3.35,2.957 5.61,6.969 6.36,11.379 8.66,50.34 -0.36,88.51 -26.83,113.47" /><path
         id="path48"
         style="fill:#ffffff;fill-opacity:1;fill-rule:nonzero;stroke:none"
         d="m 912.328,2769.18 c 0,-78.44 63.59,-142.03 142.032,-142.03 78.43,0 142.02,63.59 142.02,142.03 0,78.44 -63.59,142.02 -142.02,142.02 -78.442,0 -142.032,-63.58 -142.032,-142.02" /><path
         id="path50"
         style="fill:#55606d;fill-opacity:1;fill-rule:nonzero;stroke:none"
         d="m 929.508,2767.69 c 0,-63.47 51.64,-115.1 115.112,-115.1 63.47,0 115.1,51.63 115.1,115.1 0,63.47 -51.63,115.1 -115.1,115.1 -63.472,0 -115.112,-51.63 -115.112,-115.1 z m -39.176,0 c 0,85.08 69.215,154.28 154.288,154.28 85.07,0 154.28,-69.2 154.28,-154.28 0,-85.07 -69.21,-154.28 -154.28,-154.28 -85.073,0 -154.288,69.21 -154.288,154.28" /><path
         id="path52"
         style="fill:#55606d;fill-opacity:1;fill-rule:nonzero;stroke:none"
         d="m 1010.28,2746.89 c 0,-30.44 24.68,-55.13 55.13,-55.13 30.44,0 55.13,24.69 55.13,55.13 0,30.45 -24.69,55.13 -55.13,55.13 -30.45,0 -55.13,-24.68 -55.13,-55.13" /><path
         id="path54"
         style="fill:none;stroke:#55606d;stroke-width:10;stroke-linecap:butt;stroke-linejoin:miter;stroke-miterlimit:10;stroke-dasharray:none;stroke-opacity:1"
         d="m 1010.28,2746.89 c 0,-30.44 24.68,-55.13 55.13,-55.13 30.44,0 55.13,24.69 55.13,55.13 0,30.45 -24.69,55.13 -55.13,55.13 -30.45,0 -55.13,-24.68 -55.13,-55.13 z" /><path
         id="path56"
         style="fill:#55606d;fill-opacity:1;fill-rule:nonzero;stroke:none"
         d="m 1654.38,2750.43 c -48.97,-48.97 68.56,-68.56 68.56,-68.56 0,0 -19.59,117.54 -68.56,68.56" /><path
         id="path58"
         style="fill:#ffffff;fill-opacity:1;fill-rule:nonzero;stroke:none"
         d="m 2640.12,3198.59 c 3.03,3.25 28.04,7.29 87.57,-34.7 93.14,-67.01 177.05,-144.2 250.77,-229.34 -6.75,-1.07 -12.25,-3.11 -16.17,-5.12 -35.14,-18.08 -45.19,-71.56 -27.34,-135.95 -129.01,179.61 -185.28,228.16 -201.69,239.98 -17.29,27.16 -35.22,52.89 -53.76,76.77 -43.15,52.05 -43.94,83.41 -39.38,88.36" /><path
         id="path60"
         style="fill:none;stroke:#ffffff;stroke-width:10;stroke-linecap:round;stroke-linejoin:round;stroke-miterlimit:10;stroke-dasharray:none;stroke-opacity:1"
         d="m 2640.12,3198.59 c 3.03,3.25 28.04,7.29 87.57,-34.7 93.14,-67.01 177.05,-144.2 250.77,-229.34 -6.75,-1.07 -12.25,-3.11 -16.17,-5.12 -35.14,-18.08 -45.19,-71.56 -27.34,-135.95 -129.01,179.61 -185.28,228.16 -201.69,239.98 -17.29,27.16 -35.22,52.89 -53.76,76.77 -43.15,52.05 -43.94,83.41 -39.38,88.36 z" /><path
         id="path62"
         style="fill:#ffffff;fill-opacity:1;fill-rule:nonzero;stroke:none"
         d="m 2530.46,3052.52 c 2.92,6.77 7.17,10.67 13.77,12.67 13.07,3.97 55.15,5.65 162.72,-64.06 0.08,-0.05 0.18,-0.06 0.27,-0.11 0.13,-0.09 0.23,-0.2 0.37,-0.29 2.05,-1.28 41.42,-27.1 150.29,-172.35 -7.74,2.64 -15.21,4.27 -22.34,4.66 -19.74,1.16 -37.31,-6.08 -51.11,-20.7 -25.98,-27.53 -28.69,-57.68 -18.34,-95.77 -49.92,70.05 -75.95,94.33 -83.31,100.5 -12.86,14.41 -25.06,27.96 -36.49,40.66 -100.43,111.49 -134.21,152.21 -115.83,194.79" /><path
         id="path64"
         style="fill:none;stroke:#ffffff;stroke-width:10;stroke-linecap:round;stroke-linejoin:round;stroke-miterlimit:10;stroke-dasharray:none;stroke-opacity:1"
         d="m 2530.46,3052.52 c 2.92,6.77 7.17,10.67 13.77,12.67 13.07,3.97 55.15,5.65 162.72,-64.06 0.08,-0.05 0.18,-0.06 0.27,-0.11 0.13,-0.09 0.23,-0.2 0.37,-0.29 2.05,-1.28 41.42,-27.1 150.29,-172.35 -7.74,2.64 -15.21,4.27 -22.34,4.66 -19.74,1.16 -37.31,-6.08 -51.11,-20.7 -25.98,-27.53 -28.69,-57.68 -18.34,-95.77 -49.92,70.05 -75.95,94.33 -83.31,100.5 -12.86,14.41 -25.06,27.96 -36.49,40.66 -100.43,111.49 -134.21,152.21 -115.83,194.79 z" /><path
         id="path66"
         style="fill:#ffffff;fill-opacity:1;fill-rule:nonzero;stroke:none"
         d="m 2541.01,2800.62 c 4.04,11.31 8.8,13.38 10.58,14.14 17.1,7.45 59.75,-10.71 105.83,-30.63 8.6,-7.63 55.01,-52.57 152.59,-209.25 -19.79,9.31 -37.93,13.49 -54.35,12.52 -20.56,-1.25 -38.65,-10.63 -52.33,-27.13 -4.1,-4.95 -7.02,-11.45 -9.01,-19.06 -32.26,61.92 -67.99,115.02 -96.87,157.86 -26.71,39.65 -59.97,89.01 -56.44,101.55" /><path
         id="path68"
         style="fill:none;stroke:#ffffff;stroke-width:10;stroke-linecap:round;stroke-linejoin:round;stroke-miterlimit:10;stroke-dasharray:none;stroke-opacity:1"
         d="m 2541.01,2800.62 c 4.04,11.31 8.8,13.38 10.58,14.14 17.1,7.45 59.75,-10.71 105.83,-30.63 8.6,-7.63 55.01,-52.57 152.59,-209.25 -19.79,9.31 -37.93,13.49 -54.35,12.52 -20.56,-1.25 -38.65,-10.63 -52.33,-27.13 -4.1,-4.95 -7.02,-11.45 -9.01,-19.06 -32.26,61.92 -67.99,115.02 -96.87,157.86 -26.71,39.65 -59.97,89.01 -56.44,101.55 z" /><path
         id="path70"
         style="fill:#55606d;fill-opacity:1;fill-rule:nonzero;stroke:none"
         d="m 1705.48,2308 48.3,-83.39 47.32,83.94 z m 49.75,-85.9 v 0 z m -1.24,-31.88 c -11.22,0 -21.51,5.93 -27.05,15.48 v 0.01 l -51.18,88.37 c -5.54,9.55 -5.56,21.42 -0.08,30.99 5.47,9.56 15.72,15.55 26.75,15.61 l 101.34,0.59 c 11.15,0 21.4,-5.87 26.95,-15.32 5.58,-9.49 5.69,-21.36 0.28,-30.96 l -50.16,-88.97 c -5.45,-9.68 -15.74,-15.73 -26.85,-15.8" /><path
         id="path72"
         style="fill:#55606d;fill-opacity:1;fill-rule:nonzero;stroke:none"
         d="m 1318.91,2308 48.31,-83.39 47.26,83.84 z m 49.77,-85.91 h 0.1 z m -1.26,-31.87 c -11.22,0 -21.51,5.94 -27.04,15.49 l -51.2,88.37 c -5.52,9.55 -5.55,21.42 -0.07,30.99 5.47,9.56 15.72,15.55 26.74,15.61 l 101.35,0.59 c 0.5,-0.02 0.9,-0.02 1.34,-0.05 11.04,-0.84 20.38,-6.4 25.59,-15.24 5.6,-9.53 5.71,-21.4 0.29,-30.99 l -50.14,-88.97 c -5.46,-9.68 -15.74,-15.73 -26.86,-15.8" /><path
         id="path74"
         style="fill:#55606d;fill-opacity:1;fill-rule:nonzero;stroke:none"
         d="m 1512.2,2308 48.3,-83.39 47.32,83.94 z m 49.76,-85.91 h 0.11 z m -1.26,-31.87 c -11.22,0 -21.51,5.94 -27.04,15.49 l -51.19,88.37 c -5.53,9.55 -5.56,21.42 -0.07,30.99 5.46,9.56 15.72,15.55 26.74,15.61 l 101.35,0.59 c 11.14,0 21.39,-5.86 26.94,-15.31 5.59,-9.5 5.7,-21.37 0.28,-30.97 l -50.15,-88.97 c -5.46,-9.68 -15.75,-15.73 -26.86,-15.8" /><path
         id="path76"
         style="fill:#55606d;fill-opacity:1;fill-rule:nonzero;stroke:none"
         d="m 1125.63,2308 48.3,-83.39 47.32,83.94 z m 49.76,-85.91 h 0.11 z m -1.27,-31.87 c -11.21,0 -21.5,5.94 -27.03,15.49 l -51.19,88.37 c -5.52,9.55 -5.55,21.42 -0.07,30.99 5.47,9.56 15.72,15.55 26.75,15.61 l 101.34,0.59 c 11.13,0 21.39,-5.86 26.94,-15.31 5.59,-9.5 5.7,-21.37 0.28,-30.97 l -50.15,-88.97 c -5.46,-9.69 -15.76,-15.74 -26.87,-15.8" /><path
         id="path78"
         style="fill:#55606d;fill-opacity:1;fill-rule:nonzero;stroke:none"
         d="m 424.617,1983.35 c 0,211.19 44.09,414.9 131.031,605.48 19.7,43.18 40.207,82.78 61.161,118.05 38.574,67.79 139.902,189.25 204.261,189.98 h 15.196 c 12.07,0 23.507,5.25 31.386,14.41 45.157,52.54 110.668,82.67 179.758,82.67 69.08,0 134.6,-30.13 179.75,-82.67 7.88,-9.16 19.32,-14.41 31.39,-14.41 h 212.36 c 216.38,0 392.42,-176.04 392.42,-392.43 v -117.64 c 0,-11.55 -0.52,-23.15 -1.53,-34.66 h -781.43 c -11.72,0 -22.94,-5 -30.77,-13.71 l -97.627,-108.47 c -10.91,-12.14 -13.672,-29.61 -7.032,-44.51 6.637,-14.92 21.481,-24.57 37.813,-24.57 h 808.436 c -47.28,-66.74 -113.98,-117.31 -191.32,-144.47 h -406.88 c -7.32,0 -14.16,-3.67 -18.19,-9.77 -4.03,-6.11 -4.74,-13.84 -1.87,-20.57 2.05,-4.8 210.51,-480.2 726.41,-483.76 312.31,0 738.93,154.37 875.54,568.2 29.62,104.41 39.81,244.96 -32.31,397.01 -6.53,36.42 -7.95,63.91 -2.35,71.49 6.44,7.77 13.72,11.63 22.9,12.19 14.22,0.87 47.09,-6.07 106.23,-61.34 145.73,-250.67 105.75,-528.14 105.33,-530.92 -1.73,-11.33 6.05,-21.93 17.39,-23.66 1.06,-0.16 2.12,-0.24 3.16,-0.24 10.08,0 18.93,7.35 20.49,17.62 1.84,11.95 43,295.29 -111.16,559.3 -19.93,49.84 -39.13,91.81 -54.6,125.56 -42.11,91.92 -55.4,125.07 -30.39,151.56 5.46,5.77 11.3,8.2 18.61,7.75 30.25,-1.66 80.02,-45.56 136.61,-120.44 197.9,-290.09 200.39,-716.31 200.39,-720.59 0,-11.46 9.3,-20.76 20.77,-20.76 11.47,0 20.76,9.3 20.76,20.77 0,17.9 -2.41,440.38 -205.69,741.05 -7.25,32.82 -15.67,64.54 -25.4,94.76 -21.78,60.98 -12.52,99.37 0.59,106.12 9.2,4.73 31.84,-2.81 61.52,-37.72 187.99,-250.52 293.77,-558.34 293.77,-877.95 0,-592.98 -355.03,-1104.47 -863.64,-1333.412 C 2296.62,567.852 2096.04,522.84 1885.13,522.84 1079.8,522.84 424.617,1178.03 424.617,1983.35 Z m 2346.423,738.47 c -34.4,48.24 -57.45,74.77 -70.86,88.63 -0.4,4.57 -2.18,9.02 -5.4,12.63 -13.26,14.86 -25.79,28.77 -37.55,41.83 -100.14,111.15 -133.85,151.74 -115.71,193.75 2.83,6.55 6.75,10.16 13.12,12.09 1.6,0.48 3.64,0.93 6.19,1.21 20.9,0.24 64.98,-9.79 151.05,-65.58 0.09,-0.06 0.19,-0.06 0.28,-0.11 0.13,-0.09 0.22,-0.21 0.36,-0.29 2.06,-1.29 41.43,-27.11 150.3,-172.35 -7.74,2.64 -15.21,4.26 -22.35,4.66 -19.74,1.15 -37.3,-6.09 -51.1,-20.71 -25.99,-27.52 -28.69,-57.67 -18.33,-95.76 z m -62.78,-156.3 c -2.54,-3.07 -4.58,-6.79 -6.27,-10.94 -31.38,59.23 -65.67,110.22 -93.56,151.61 -26.39,39.17 -59.24,87.91 -56.33,100.63 3.89,10.88 8.34,12.81 10.02,13.54 1.47,0.65 3.22,1.03 5.1,1.29 20.84,-0.38 56.76,-15.69 95.14,-32.27 8.59,-7.63 55,-52.57 152.58,-209.25 -19.78,9.31 -37.92,13.49 -54.34,12.52 -20.56,-1.25 -38.66,-10.63 -52.34,-27.13 z m 231.63,233.21 c -107.83,150.11 -164.82,208.65 -190.21,230.74 -0.52,2.52 -1.46,4.98 -2.89,7.26 -18.05,28.61 -36.87,55.57 -56.38,80.7 -43.1,51.98 -43.21,82.89 -39.41,87 0.43,0.45 1.58,0.95 3.46,1.25 12.28,-0.47 36.93,-7.45 78.17,-36.54 93.14,-67.01 177.04,-144.2 250.77,-229.34 -6.76,-1.07 -12.25,-3.12 -16.18,-5.13 -35.13,-18.07 -45.18,-71.56 -27.33,-135.94 z m -177.28,406.29 c -0.06,0.04 -0.11,0.08 -0.17,0.12 -71.83,50.72 -110.94,49.16 -131.42,38.14 -7.29,-2.95 -12.64,-7.14 -16.43,-11.24 -25.55,-27.6 -12.43,-80.18 33.54,-137.62 -44.78,19.67 -80.38,25.85 -106.13,18.06 -3.86,-1.17 -7.47,-2.71 -10.92,-4.47 -15.3,-6.29 -26.92,-17.83 -33.8,-33.77 -27.38,-63.37 13.26,-116.38 98.47,-211.66 -19.34,4.21 -36.19,4.21 -51,-2.23 -1.27,-0.55 -2.48,-1.21 -3.7,-1.85 -0.35,-0.14 -0.72,-0.24 -1.06,-0.39 -15.3,-6.64 -26.45,-19.52 -33.14,-38.26 -11.22,-31.41 15.99,-71.8 61.11,-138.75 45.6,-67.67 104.34,-154.98 141.34,-259.08 7.21,-30.48 15.84,-58.93 22.03,-77.92 0.15,-0.48 0.49,-0.85 0.67,-1.31 94.67,-239.46 -165.33,-776.12 -832.52,-796.89 -411.9,2.85 -616.9,325.18 -671.34,426.9 h 375.39 c 2.39,0 4.77,0.39 7.04,1.16 101.03,34.45 186.01,104.73 239.29,197.9 3.86,6.74 3.83,15.03 -0.07,21.75 -3.9,6.73 -11.09,10.87 -18.86,10.87 H 987.711 l 93.639,104.05 h 799.91 c 10.9,0 20.12,8.03 21.61,18.82 2.7,19.58 4.06,39.58 4.06,59.44 v 117.64 c 0,240.43 -195.6,436.03 -436.02,436.03 h -211.34 c -53.43,61.71 -130.69,97.08 -212.16,97.08 -81.472,0 -158.738,-35.37 -212.16,-97.08 H 820.824 C 719.48,2939.31 604.23,2772.95 579.109,2728.8 c -21.543,-36.27 -42.781,-77.27 -63.129,-121.87 -89.55,-196.3 -134.964,-406.1 -134.964,-623.58 0,-829.37 674.744,-1504.108 1504.114,-1504.108 829.38,0 1504.12,674.738 1504.12,1504.108 0,482.7 -234.27,939.4 -626.64,1221.67" /></g></g></svg>